<svg version="1.1" id="Layer_1" xmlns="http://www.w3.org/2000/svg" xmlns:xlink="http://www.w3.org/1999/xlink" x="0px" y="0px"
	 width="100%" viewBox="0 0 1024 1024" enable-background="new 0 0 1024 1024" xml:space="preserve">
<path fill="#FDFDFD" opacity="1.000000" stroke="none" 
	d="
M0.999998,678.000000 
	C1.000000,452.372864 1.000000,226.745697 1.000000,1.059278 
	C342.234039,1.059278 683.468079,1.059278 1025.000000,1.059278 
	C1025.000000,225.694611 1025.000000,450.389374 1024.592041,675.401428 
	C1021.180786,653.150696 1019.377258,630.339050 1014.856567,608.079224 
	C1009.744995,582.909302 1002.796875,558.057678 995.549438,533.390198 
	C986.655640,503.119263 976.789856,473.128845 967.047729,443.113403 
	C951.549438,395.363617 934.767639,348.074799 915.144714,301.836151 
	C914.289978,299.822205 913.200012,297.908112 912.032593,295.573608 
	C909.621277,303.314606 907.679138,310.323822 905.262878,317.165527 
	C896.998169,340.566528 880.437012,353.612030 855.578918,354.075195 
	C843.561218,354.299164 831.436035,352.174225 819.466187,350.395081 
	C810.857422,349.115570 802.425232,346.648254 793.481628,344.612274 
	C793.481628,346.529449 793.458374,347.831512 793.485046,349.132538 
	C794.729797,409.928223 801.585327,470.074707 815.599304,529.262329 
	C822.719788,559.335693 831.175720,589.092896 838.603210,618.998291 
	C837.046326,619.033081 835.914124,619.062561 834.532227,618.829895 
	C825.116455,582.486267 815.212097,546.572754 806.961853,510.283173 
	C795.336792,459.149048 790.172241,407.134369 788.944702,354.730682 
	C788.680237,343.440430 788.756042,343.412231 777.939697,339.885773 
	C761.245178,334.442902 746.098450,326.485352 736.892639,310.852325 
	C731.528442,301.743042 727.508240,291.816498 723.215393,282.110779 
	C720.106995,275.083008 717.536072,267.773254 710.738525,263.294098 
	C701.946899,257.501007 692.323547,253.857544 681.715576,253.830093 
	C647.885742,253.742584 614.055420,253.857330 580.225281,253.893616 
	C578.641479,253.895309 577.057739,253.893829 575.473938,253.893829 
	C575.260315,254.329147 575.046753,254.764465 574.833130,255.199783 
	C576.784180,256.757233 578.515869,258.990295 580.738281,259.711945 
	C583.976624,260.763519 587.567200,261.089844 591.009155,261.098511 
	C621.172668,261.174438 651.336670,261.073730 681.500366,261.108398 
	C692.408875,261.120941 700.882141,267.611969 701.773804,277.825317 
	C703.467651,297.224762 705.081543,316.679535 705.433289,336.134766 
	C705.815552,357.277161 704.734985,378.446503 704.272034,399.603638 
	C703.528381,433.589813 702.856384,467.577881 701.972229,501.560455 
	C701.608826,515.528687 692.418274,524.334656 678.395630,524.726013 
	C676.397217,524.781799 674.396240,524.757385 672.396484,524.757202 
	C635.733215,524.754456 599.069946,524.749634 562.406677,524.745239 
	C560.596375,524.745056 558.786072,524.745239 556.592163,524.745239 
	C556.401611,528.914795 556.288147,532.715881 556.042786,536.508423 
	C555.410156,546.288574 549.395813,552.968262 539.591797,553.194275 
	C521.940613,553.601257 504.267303,553.521912 486.613647,553.150330 
	C477.915894,552.967224 472.060486,547.232971 470.773193,538.657837 
	C470.092560,534.124084 470.000671,529.501953 469.629974,524.753296 
	C467.314148,524.753296 465.320251,524.752930 463.326324,524.753418 
	C425.329834,524.762451 387.333282,524.729004 349.336945,524.810242 
	C339.703552,524.830811 331.711517,521.429932 327.437164,512.749268 
	C325.189056,508.183685 324.492981,502.508636 324.357758,497.301819 
	C323.137756,450.325867 322.432617,403.335876 321.080414,356.364288 
	C320.354523,331.147736 321.753662,306.078979 324.177643,281.027374 
	C325.475067,267.618805 332.816437,261.070007 346.195831,261.089417 
	C367.860443,261.120850 389.525085,261.155701 411.189697,261.169922 
	C420.688660,261.176147 430.188629,261.211609 439.686127,261.083618 
	C444.480072,261.019043 448.836060,259.895477 451.063202,254.264648 
	C449.565369,254.129135 448.461639,253.942993 447.357758,253.941925 
	C412.527985,253.908569 377.677734,253.176514 342.876984,254.172546 
	C325.046600,254.682861 309.672699,261.642212 303.931458,281.107086 
	C303.134460,283.809113 301.995422,286.414795 300.941620,289.035645 
	C295.044434,303.702667 287.864197,317.473724 274.718811,327.183136 
	C264.910492,334.427734 253.711472,338.592285 242.140335,341.790344 
	C238.619690,342.763336 237.489349,344.155090 237.358261,347.842224 
	C236.624435,368.485260 236.072998,389.156128 234.496185,409.743744 
	C230.430054,462.832886 220.181335,514.893433 206.908966,566.372742 
	C202.437149,583.717590 197.088867,600.836487 191.811035,618.088257 
	C191.520569,618.792175 191.560211,619.466492 191.534637,620.534485 
	C180.677307,654.509705 166.594269,686.733582 151.359863,718.493347 
	C134.556030,753.525024 116.683037,788.159851 109.362221,827.000488 
	C107.706184,826.920715 106.502533,826.841187 105.262238,826.333740 
	C108.409073,813.858459 110.322105,801.287781 115.026878,789.867126 
	C126.669823,761.604187 138.810349,733.489197 152.147873,705.992371 
	C188.071930,631.930786 208.568802,553.299683 221.749023,472.602661 
	C226.678055,442.424255 228.823608,411.765076 231.524460,381.261932 
	C232.587036,369.261444 231.698563,357.088196 231.698563,344.902039 
	C231.187515,345.011505 229.910660,345.304565 228.625870,345.557220 
	C213.951263,348.442719 199.391830,352.460907 184.576645,353.974854 
	C149.709625,357.537903 129.905472,344.008881 118.970375,310.710815 
	C117.323807,305.696899 116.183037,300.516907 114.808296,295.413727 
	C114.198677,295.282288 113.589058,295.150818 112.979439,295.019379 
	C100.977425,326.490997 88.406082,357.760345 77.130959,389.490265 
	C65.480865,422.275391 54.676224,455.378296 44.266949,488.582062 
	C34.145741,520.867004 24.273323,553.265503 15.631967,585.968262 
	C7.897035,615.240845 3.461066,645.215149 1.992609,675.545349 
	C1.952314,676.377625 1.343631,677.182373 0.999998,678.000000 
M543.001770,296.411682 
	C543.020752,295.984283 543.039734,295.556915 543.466736,294.412354 
	C543.602051,292.649933 543.737366,290.887512 543.870239,289.157471 
	C547.636780,289.166138 547.636780,289.166138 548.859131,294.128632 
	C553.429321,294.128632 558.073059,294.227905 562.710693,294.101257 
	C567.542908,293.969330 569.723511,291.767090 569.643738,286.955719 
	C569.567139,282.337189 569.164246,277.724060 568.899902,273.023682 
	C567.094055,273.023682 565.592773,273.023682 563.651794,273.023682 
	C563.651794,276.809326 563.651794,280.218384 563.651794,283.489746 
	C529.664185,283.489746 496.124695,283.489746 462.153320,283.489746 
	C462.153320,279.721252 462.153320,276.311279 462.153320,272.578033 
	C460.283936,272.773834 458.881348,272.920746 456.784851,273.140320 
	C456.784851,278.218811 456.772644,283.018585 456.788940,287.818268 
	C456.800690,291.272949 458.317383,293.818787 461.906067,294.009216 
	C467.159332,294.287994 472.438385,294.080963 477.755035,294.080963 
	C477.908875,292.193604 478.026276,290.753540 478.153137,289.196899 
	C479.653992,289.196899 480.877686,289.196899 481.739746,289.196899 
	C482.529236,291.483429 483.199463,293.424469 483.848633,295.920319 
	C483.899078,296.280182 483.949524,296.640015 483.241302,297.398834 
	C481.847778,307.464050 482.350861,308.076508 492.145325,308.081421 
	C507.257690,308.089020 522.371399,307.972839 537.481567,308.153961 
	C541.733459,308.204895 543.789124,306.793793 543.437866,302.451874 
	C543.292297,300.652740 543.122437,298.855530 543.001770,296.411682 
M189.099030,242.915512 
	C177.058167,249.955185 164.968903,256.914612 153.025177,264.115356 
	C151.085785,265.284607 148.455917,267.518463 148.449478,269.268707 
	C148.430313,274.470978 148.851624,279.905121 150.430450,284.821655 
	C152.196411,290.321045 156.945068,291.865540 161.586884,288.451904 
	C165.903625,285.277344 170.135284,281.314240 172.851105,276.770020 
	C179.309875,265.962982 184.849915,254.606888 191.177872,242.983475 
	C190.714691,242.917755 190.251526,242.852020 189.099030,242.915512 
M836.021240,242.038635 
	C835.694214,242.138641 835.367126,242.238632 835.040100,242.338623 
	C835.283264,242.635437 835.526367,242.932236 835.866455,243.939026 
	C842.764771,256.400085 849.328186,269.064667 856.718872,281.226532 
	C859.873840,286.418152 864.730713,291.027557 871.854614,289.432312 
	C876.483704,288.395691 879.376160,280.535522 878.840149,272.617249 
	C878.592163,268.953888 877.506226,266.191772 873.941711,264.194092 
	C861.349670,257.136871 848.943481,249.747910 836.021240,242.038635 
M232.823563,208.051666 
	C250.033783,211.061249 267.308563,213.755051 284.419006,217.252655 
	C290.362274,218.467545 295.738495,222.824432 301.665466,223.649139 
	C307.736450,224.493881 314.173431,222.193314 320.435089,222.286484 
	C335.083618,222.504440 349.723328,223.326950 364.365448,223.931976 
	C364.824188,223.950928 365.270477,224.270523 365.677185,224.431946 
	C366.357697,228.054382 364.044647,228.384567 361.505157,228.311386 
	C351.680847,228.028305 341.858490,227.474899 332.034241,227.447433 
	C322.255676,227.420090 312.442352,227.520874 302.714203,228.368149 
	C299.277527,228.667450 296.800354,228.167130 293.891937,226.596527 
	C289.429138,224.186539 284.785706,221.652924 279.907928,220.561066 
	C268.385956,217.981903 256.617004,216.520813 245.064117,214.061783 
	C226.762802,210.166336 209.363068,212.371231 192.549789,220.405960 
	C184.453674,224.274933 176.229752,227.876389 168.064667,231.601074 
	C162.816910,233.994980 157.516785,235.542404 151.516968,231.937714 
	C148.528915,242.146301 145.694916,251.828522 142.495193,262.760223 
	C145.550095,260.618866 147.212280,259.223114 149.073608,258.184174 
	C171.574554,245.624664 193.978378,232.879684 216.730515,220.790939 
	C221.485062,218.264725 227.697662,216.764160 232.989029,217.291718 
	C248.358734,218.824097 263.642639,221.391647 278.875610,224.039536 
	C285.479187,225.187424 289.692871,229.768066 291.089142,236.424973 
	C292.280762,242.106049 293.121216,247.860764 294.234009,254.255081 
	C303.338623,246.338852 314.012817,245.590515 325.021545,245.757980 
	C338.518341,245.963303 352.020081,245.853088 365.519684,245.854187 
	C367.126434,245.854309 368.733215,245.696899 371.176544,245.568558 
	C368.455170,226.954163 372.972717,209.996124 381.235718,194.779434 
	C371.503876,189.969467 362.237457,185.897827 353.474548,180.936768 
	C341.008850,173.879410 328.523712,168.192490 313.558807,168.789429 
	C283.648956,169.982559 254.061188,172.816757 225.548935,182.540329 
	C201.926926,190.596207 179.517593,201.006607 161.011383,218.295227 
	C158.079773,221.033981 155.895844,224.573074 153.366241,227.742126 
	C153.671768,228.413956 153.977310,229.085785 154.282837,229.757599 
	C157.535843,229.407471 161.058304,229.737152 163.989563,228.575287 
	C171.703537,225.517776 179.087250,221.638702 186.735733,218.401688 
	C200.537827,212.560379 214.357147,206.623840 230.139954,208.262436 
	C230.754684,208.190704 231.369431,208.118973 232.823563,208.051666 
M797.966736,207.836334 
	C802.440552,208.129913 807.139038,207.650391 811.343140,208.872162 
	C821.201660,211.737183 830.923340,215.157501 840.508606,218.850876 
	C847.782227,221.653564 854.712830,225.334259 861.889343,228.406265 
	C865.562317,229.978500 869.447266,231.173828 873.535706,227.273865 
	C870.364075,223.732620 867.590454,219.961929 864.166321,216.924622 
	C845.408936,200.286469 823.269714,189.768234 799.693420,181.988312 
	C774.338623,173.621460 748.131409,170.059387 721.585083,169.256409 
	C711.868469,168.962494 701.278625,168.451675 692.522705,171.797028 
	C676.391357,177.960312 661.322021,186.903061 645.337036,194.924973 
	C653.474487,210.525848 658.324402,227.380585 655.578918,245.811966 
	C671.124451,245.811966 685.603271,245.929565 700.079102,245.774445 
	C711.479126,245.652283 722.713257,245.891174 732.533020,254.065964 
	C733.330627,248.822510 733.958435,244.263092 734.727417,239.727585 
	C736.461548,229.500061 740.882263,224.883499 751.112244,223.082047 
	C761.599487,221.235275 772.133789,219.653244 782.654175,217.997726 
	C791.801514,216.558258 800.924011,215.890335 809.504211,220.426544 
	C822.868347,227.492020 836.257874,234.516235 849.485535,241.831146 
	C860.632874,247.995605 871.565186,254.548782 884.111206,261.808563 
	C880.893127,251.003799 878.052063,241.464752 875.131409,231.658554 
	C869.974792,235.334732 865.259827,234.441483 860.731201,232.487183 
	C852.795105,229.062378 845.008728,225.292267 837.114746,221.767532 
	C821.256958,214.686981 805.041321,209.690857 787.322510,213.091629 
	C778.661621,214.753891 769.943359,216.114944 761.259033,217.657410 
	C750.330261,219.598526 739.083252,220.513901 729.926514,227.998993 
	C728.886719,228.848999 726.811401,228.719879 725.252014,228.595825 
	C719.150513,228.110428 713.057617,226.894836 706.971802,226.956726 
	C692.819336,227.100616 678.674255,227.898804 664.521179,228.199875 
	C663.231812,228.227295 661.906738,226.582535 660.598267,225.714310 
	C661.909729,225.105591 663.199097,224.024094 664.536133,223.961411 
	C677.680359,223.345123 690.830078,222.814606 703.983521,222.445175 
	C709.130615,222.300613 714.430908,221.926529 719.407532,222.923798 
	C724.911377,224.026688 729.599854,224.356110 734.126404,220.322601 
	C735.884949,218.755600 738.551147,217.840927 740.944397,217.410934 
	C758.947388,214.176453 776.985535,211.137085 795.322693,208.495193 
	C795.896851,208.288940 796.470947,208.082703 797.966736,207.836334 
M603.496582,493.930420 
	C606.162842,493.925201 608.843628,494.096954 611.492493,493.879669 
	C617.922485,493.352264 623.304443,494.794617 627.041626,500.636871 
	C627.681946,501.638031 629.831299,502.076019 631.289429,502.088318 
	C643.121277,502.188354 654.954590,502.138367 666.787354,502.106964 
	C676.221008,502.081909 680.128662,498.181793 680.275330,488.842010 
	C680.680908,463.014374 681.558899,437.185333 681.441772,411.360504 
	C681.272705,374.083893 685.183777,336.756958 680.130554,299.524292 
	C678.967102,290.951660 675.681641,287.533325 666.828430,287.527161 
	C636.996399,287.506378 607.164429,287.544617 577.332397,287.572479 
	C576.358826,287.573395 575.385437,287.706238 574.505798,287.770691 
	C571.794006,296.341797 569.331055,298.126068 560.338562,298.172943 
	C556.396912,298.193512 552.455200,298.176422 548.470520,298.176422 
	C548.294922,299.460114 548.160461,300.098480 548.126587,300.742157 
	C547.606323,310.641205 546.101318,312.074554 536.067749,312.083038 
	C521.735046,312.095184 507.402313,312.093658 493.069580,312.081818 
	C479.380646,312.070526 479.380646,312.061401 477.580475,298.165894 
	C474.529755,298.165894 471.390839,297.967773 468.285004,298.204193 
	C460.011841,298.833984 453.121765,297.402313 451.799133,287.679474 
	C419.697693,287.679474 388.212860,287.572540 356.729919,287.766266 
	C350.132507,287.806824 346.625336,291.913849 346.236633,299.313782 
	C345.320282,316.759308 343.929382,334.222198 344.029144,351.670654 
	C344.292023,397.662933 345.226013,443.651550 345.944305,489.640839 
	C346.073151,497.890381 350.087891,501.980072 358.243378,502.072113 
	C370.574677,502.211334 382.908966,502.181946 395.240540,502.068207 
	C396.661682,502.055054 398.722198,501.462067 399.380981,500.431427 
	C402.763794,495.139069 407.558563,493.854706 413.506042,493.865234 
	C476.503174,493.976532 539.500549,493.933014 603.496582,493.930420 
M696.595947,489.272247 
	C697.087646,465.283905 697.704346,441.297333 698.043823,417.306824 
	C698.663086,373.529510 702.195862,329.757050 697.095093,285.975769 
	C695.184204,269.574158 692.151245,265.847748 675.412170,265.853516 
	C647.747498,265.863098 620.082764,265.883240 592.418091,265.889435 
	C589.585449,265.890076 586.740417,265.983521 583.922546,265.761536 
	C576.271545,265.158752 570.542114,261.279297 569.473572,254.963547 
	C568.715515,250.482910 566.505432,249.808929 562.705383,249.824738 
	C539.540771,249.921005 516.375610,249.888535 493.210602,249.868332 
	C483.212616,249.859619 473.214661,249.751114 463.216705,249.747528 
	C460.755615,249.746658 458.240112,249.498871 457.225494,252.831680 
	C454.230103,262.670868 449.967682,265.786743 439.642792,265.833893 
	C426.310669,265.894745 412.978088,265.859375 399.645721,265.862549 
	C381.480377,265.866882 363.314728,265.809418 345.149811,265.898560 
	C337.188995,265.937622 330.873993,270.697906 330.224152,277.867889 
	C328.676208,294.946747 326.388397,312.083405 326.580292,329.172241 
	C327.220001,386.156799 328.818695,443.130585 330.050873,500.108521 
	C330.321564,512.625244 336.831421,519.043030 349.403839,519.051270 
	C389.900940,519.077820 430.398041,519.068237 470.895142,519.072510 
	C473.195862,519.072754 475.496582,519.072571 478.135834,519.072571 
	C477.866516,517.076172 477.700684,515.457825 477.423553,513.858826 
	C476.115326,506.310272 476.104462,506.324249 468.592316,506.332855 
	C458.093079,506.344879 447.593811,506.345703 437.094574,506.335266 
	C410.763245,506.309143 384.431732,506.319031 358.100677,506.219299 
	C348.218597,506.181885 342.301666,500.355133 341.835419,490.497498 
	C341.717346,488.001892 341.742493,485.499481 341.703796,483.000153 
	C340.986755,436.677490 339.992126,390.356537 339.706970,344.031219 
	C339.609863,328.259033 341.112183,312.462311 342.252594,296.703522 
	C342.795532,289.200928 347.642242,284.717560 355.153687,283.786835 
	C357.788025,283.460388 360.469391,283.410645 363.129364,283.409119 
	C391.127350,283.393066 419.125305,283.412445 447.123291,283.421875 
	C448.902344,283.422485 450.681396,283.421997 453.031738,283.421997 
	C453.031738,279.418884 452.691345,276.057068 453.183899,272.821991 
	C453.409912,271.337463 455.322723,268.913849 456.382812,268.959381 
	C460.956726,269.155853 463.887634,266.982239 466.501160,263.267395 
	C465.550476,262.815552 464.453033,262.293945 463.355591,261.772339 
	C463.591248,261.269562 463.826935,260.766815 464.062592,260.264038 
	C465.528107,259.820282 466.992798,258.992523 468.459229,258.989349 
	C498.456879,258.924591 528.454834,258.926239 558.452209,259.043610 
	C560.015198,259.049713 561.573730,260.201660 563.868042,261.110931 
	C561.829407,262.346771 560.975952,262.864166 560.122498,263.381531 
	C560.033203,263.935608 559.943848,264.489685 559.854553,265.043762 
	C562.859985,266.181458 565.786865,267.687805 568.893616,268.350037 
	C571.818726,268.973511 573.391418,270.004639 573.243958,273.192261 
	C573.092773,276.460724 573.210449,279.741638 573.210449,283.408722 
	C575.756836,283.408722 577.556702,283.409332 579.356567,283.408569 
	C608.021118,283.396088 636.685608,283.371063 665.350159,283.394196 
	C667.669922,283.396057 670.018250,283.556396 672.303528,283.939850 
	C678.129395,284.917267 683.249817,289.725250 683.837036,295.528107 
	C685.093262,307.942871 686.894897,320.407410 686.786804,332.836945 
	C686.331726,385.159241 685.269897,437.476410 684.396179,489.794861 
	C684.219543,500.374939 678.173584,506.203033 667.290466,506.224426 
	C631.959900,506.293884 596.629089,506.304535 561.298401,506.316589 
	C549.407532,506.320648 549.406860,506.291565 548.385376,518.200073 
	C548.373962,518.332458 548.487976,518.475525 548.720581,519.054810 
	C550.170105,519.054810 551.808838,519.054749 553.447510,519.054871 
	C569.113037,519.055847 584.778625,519.061218 600.444153,519.056946 
	C626.608948,519.049805 652.773865,519.090271 678.938354,518.998962 
	C689.121765,518.963440 695.820435,512.283752 696.153564,502.211578 
	C696.285828,498.214264 696.410828,494.216675 696.595947,489.272247 
M156.656631,294.264832 
	C152.105347,294.035095 148.954056,291.641754 147.940475,287.356079 
	C146.605331,281.710724 145.903946,275.915436 144.937454,270.228058 
	C140.857941,274.338043 137.791168,279.143097 139.742172,285.540344 
	C141.958252,292.806885 144.066788,300.147797 146.933899,307.165558 
	C152.937347,321.860168 164.534134,328.196198 180.056259,327.939392 
	C199.352493,327.620178 218.062225,323.680817 236.425095,318.137329 
	C244.587616,315.673126 252.439667,312.180481 260.336639,309.190948 
	C252.027802,286.323944 249.668259,263.801361 248.673325,240.894196 
	C250.191513,242.064499 251.107742,243.494400 251.321655,245.022598 
	C252.959106,256.721008 254.150360,268.490509 256.104919,280.133057 
	C257.563812,288.823334 259.953796,297.357300 261.929138,305.960876 
	C262.524323,306.083496 263.119537,306.206146 263.714722,306.328766 
	C266.510284,302.495575 269.807678,298.928223 272.005585,294.778473 
	C278.138794,283.198761 283.827545,271.383240 289.646210,259.638245 
	C289.992523,258.939270 290.167542,258.001892 290.034851,257.243134 
	C288.832794,250.367203 287.888489,243.419342 286.180084,236.666748 
	C284.616241,230.485626 282.100433,229.882935 277.294800,233.858612 
	C269.563934,240.254364 261.659515,242.158997 251.986618,237.360062 
	C247.040573,234.906219 240.831421,234.014526 235.222000,234.110138 
	C226.610092,234.256897 218.039978,236.064987 209.420273,236.788620 
	C202.222977,237.392853 197.338181,240.944855 194.128372,247.184753 
	C193.063919,249.254074 192.092621,251.376587 190.932388,253.390472 
	C184.884476,263.888275 179.093704,274.552979 172.584579,284.758484 
	C169.248123,289.989594 164.338028,293.961731 156.656631,294.264832 
M753.160034,292.292786 
	C756.442627,297.035309 759.725281,301.777802 763.007874,306.520325 
	C765.312866,302.532806 766.492432,299.399963 767.010864,296.161346 
	C769.770020,278.924255 772.334595,261.656036 775.076355,244.416077 
	C775.268738,243.206665 776.346252,242.138016 777.012085,241.003891 
	C777.495422,242.035522 778.462708,243.102219 778.390869,244.093597 
	C776.815979,265.818573 773.907776,287.312378 766.696716,308.225433 
	C767.626099,308.804138 768.523499,309.606232 769.573303,309.979034 
	C780.342163,313.803192 790.893555,318.694641 801.981018,321.056610 
	C817.364624,324.333771 833.109009,326.202057 848.793030,327.662262 
	C856.405945,328.371063 864.485901,326.493408 870.081055,320.734161 
	C880.489807,310.020111 886.277039,296.857666 887.293457,281.886200 
	C887.632507,276.892212 884.622253,273.140625 881.063538,269.280548 
	C880.772888,274.338013 880.864685,278.524475 880.234924,282.599396 
	C878.424194,294.315338 869.872375,298.226898 860.580994,290.904083 
	C855.368774,286.796204 851.007446,281.169891 847.471130,275.477051 
	C842.134827,266.886566 837.760010,257.688232 833.156860,248.656311 
	C829.566040,241.610504 824.499512,237.050232 816.165894,236.737167 
	C812.693604,236.606735 809.257202,235.698364 805.787537,235.286942 
	C793.390564,233.816925 781.101196,231.861206 769.390076,239.087769 
	C764.603943,242.041183 758.952942,240.339310 754.223877,237.354721 
	C751.155884,235.418427 748.346558,233.072281 744.544678,230.261719 
	C742.959717,232.788101 740.761047,235.005524 740.092285,237.615051 
	C738.485901,243.883041 737.575500,250.331131 736.448120,256.717834 
	C736.315247,257.470459 736.365173,258.399689 736.694275,259.067902 
	C742.046326,269.935944 747.457092,280.775085 753.160034,292.292786 
M522.500122,194.261978 
	C478.838593,194.277954 435.177002,194.279770 391.515594,194.359375 
	C389.679688,194.362717 386.654144,194.551346 386.196228,195.564056 
	C382.124481,204.569214 378.506958,213.779739 374.448761,223.677795 
	C467.555542,223.677795 559.104431,223.677795 651.862793,223.677795 
	C648.457886,214.992386 645.174988,207.050278 642.255737,198.976685 
	C640.930420,195.311508 639.031677,194.078598 634.984680,194.101532 
	C597.824036,194.312134 560.661865,194.246902 522.500122,194.261978 
M651.330200,238.709137 
	C651.330200,235.250275 651.330200,231.791428 651.330200,228.311584 
	C559.001526,228.311584 467.153412,228.311584 375.364594,228.311584 
	C375.364594,234.216675 375.364594,239.797821 375.364594,245.638733 
	C467.405029,245.638733 559.108948,245.638733 651.339294,245.638733 
	C651.339294,243.535385 651.339294,241.589630 651.330200,238.709137 
M898.277039,273.224030 
	C897.039551,271.610474 895.802063,269.996887 894.564575,268.383301 
	C897.494873,284.845245 893.027649,299.436493 885.624268,313.419434 
	C879.905457,324.220642 871.757568,332.535614 859.140320,333.973846 
	C849.821167,335.036102 840.222473,335.284058 830.906921,334.335846 
	C818.579651,333.081085 806.407288,330.304596 793.914124,328.138031 
	C793.669434,331.794983 793.418762,335.541626 793.138184,339.735107 
	C796.766541,340.682343 800.252075,341.629120 803.756287,342.500885 
	C820.720459,346.721069 837.681274,350.919525 855.403687,349.964844 
	C876.532898,348.826691 891.620239,339.004120 899.721252,319.195770 
	C901.416138,315.051666 902.303467,310.558441 904.175110,306.509003 
	C909.832336,294.269287 908.285767,283.399323 898.277039,273.224030 
M192.411758,348.939362 
	C205.062637,346.181946 217.728882,343.490417 230.337433,340.551361 
	C231.434479,340.295624 232.773071,338.485413 232.922424,337.265381 
	C233.294495,334.226379 233.044952,331.111237 233.044952,327.800323 
	C231.446121,328.006226 230.628494,328.082581 229.821213,328.219818 
	C215.575546,330.641602 201.409790,333.855804 187.065872,335.292999 
	C170.407913,336.962006 154.397491,334.392517 144.282852,318.835052 
	C136.104614,306.255951 130.799561,292.518921 131.787415,277.050903 
	C131.934891,274.741638 132.028519,272.428925 132.147049,270.117828 
	C131.719589,270.013153 131.292130,269.908478 130.864670,269.803802 
	C128.506775,272.958862 126.244377,276.191132 123.770226,279.252197 
	C119.243530,284.852722 117.844414,290.988220 120.022430,297.920471 
	C122.060692,304.407959 123.686371,311.043762 126.055649,317.404999 
	C133.147018,336.444397 146.716888,347.729370 167.141602,349.499298 
	C175.191833,350.196899 183.387039,349.221222 192.411758,348.939362 
M422.505676,497.993408 
	C418.342834,497.996155 414.148346,497.695496 410.030121,498.125610 
	C407.867310,498.351471 405.838135,499.856689 403.748596,500.784210 
	C403.947571,501.243958 404.146515,501.703735 404.345490,502.163513 
	C426.319183,502.163513 448.292938,502.145203 470.266602,502.173950 
	C477.479950,502.183380 480.049469,504.514954 481.102509,511.711273 
	C481.434479,513.980042 481.835632,516.238708 482.234528,518.682251 
	C502.969849,518.682251 523.384216,518.682251 543.995728,518.682251 
	C544.366760,516.530334 544.739807,514.579346 545.035095,512.616699 
	C546.308289,504.154358 548.642578,502.093658 557.087463,502.094757 
	C576.236023,502.097321 595.384583,502.113708 614.533142,502.123962 
	C617.103149,502.125336 619.673096,502.124115 622.705688,502.124115 
	C620.420044,498.054199 617.217407,497.955444 613.823425,497.957367 
	C550.383484,497.993103 486.943542,497.987946 422.505676,497.993408 
M306.541168,255.823898 
	C299.707977,258.524261 295.940948,264.059753 292.899231,270.357391 
	C288.634949,279.186310 284.333221,287.999939 279.868134,296.728333 
	C274.283661,307.644897 265.877380,315.668060 254.484222,320.349792 
	C248.840454,322.668976 243.077911,324.699127 237.036072,326.986084 
	C237.212769,330.620758 237.393936,334.347839 237.597855,338.542419 
	C241.027374,337.550446 243.854523,336.722992 246.687210,335.914886 
	C270.212799,329.203644 286.502716,314.627289 295.140808,291.596527 
	C297.531677,285.221985 300.162994,278.925842 302.963623,272.719879 
	C306.294189,265.339600 311.513184,259.695312 319.137299,256.507996 
	C320.665344,255.869186 322.122711,255.061310 323.612671,254.331390 
	C323.482513,253.871017 323.352356,253.410645 323.222168,252.950287 
	C317.895844,253.793243 312.569519,254.636185 306.541168,255.823898 
M784.632446,325.045837 
	C764.163025,319.882660 750.138794,307.424744 742.023743,287.959045 
	C739.156006,281.080292 735.674561,274.437500 732.168518,267.849152 
	C725.979736,256.219788 716.747192,251.970627 702.258789,254.368088 
	C716.894165,259.255096 723.904602,269.907074 728.124878,283.124847 
	C729.683350,288.005920 731.816345,292.734985 734.032471,297.368286 
	C738.883850,307.511475 745.022339,316.686432 754.206726,323.563660 
	C764.482971,331.258514 776.299683,335.078430 789.028015,338.494781 
	C789.028015,335.110107 788.707703,332.409424 789.109924,329.820984 
	C789.601257,326.659027 787.972656,325.694916 784.632446,325.045837 
M482.507874,269.051910 
	C480.345520,269.050446 478.183167,269.049622 476.020813,269.047394 
	C466.611542,269.037628 466.607574,269.037689 467.140259,278.628571 
	C467.155060,278.895020 467.476105,279.144470 467.727783,279.507874 
	C498.028900,279.507874 528.401428,279.507874 558.733093,279.507874 
	C560.262573,269.401123 559.996704,269.088470 550.371582,269.085846 
	C528.082886,269.079742 505.794220,269.064270 482.507874,269.051910 
M483.964630,532.391235 
	C484.249908,535.653442 485.181030,538.237366 489.217621,538.221313 
	C505.337463,538.157288 521.458862,538.241760 537.575195,537.987793 
	C539.011169,537.965210 541.295410,536.129517 541.663391,534.734375 
	C542.645142,531.012329 542.796509,527.071228 543.272217,523.263245 
	C522.751282,523.263245 502.902985,523.263245 482.792633,523.263245 
	C483.179626,526.286133 483.516235,528.915527 483.964630,532.391235 
M477.188751,523.059998 
	C476.456299,523.836365 475.131256,524.585571 475.094086,525.393921 
	C474.933990,528.876038 475.016998,532.385010 475.260193,535.866821 
	C475.754852,542.947693 480.102814,547.993469 487.250488,548.171021 
	C504.543274,548.600708 521.854431,548.606262 539.152100,548.359070 
	C545.428772,548.269409 550.176270,543.837463 550.834412,537.982361 
	C551.364807,533.263855 550.941833,528.438232 550.941833,523.660095 
	C550.565979,523.374756 550.190125,523.089417 549.814270,522.804077 
	C548.847168,523.937256 547.442871,524.927307 547.014282,526.236694 
	C546.353394,528.256042 546.365845,530.494690 546.083618,532.639160 
	C545.135681,539.843018 542.668579,542.111633 535.321838,542.149658 
	C520.509949,542.226318 505.697449,542.227661 490.885284,542.204773 
	C483.524261,542.193420 480.958496,539.685364 479.980591,532.234741 
	C479.581543,529.194458 478.703979,526.217041 477.188751,523.059998 
M809.983582,231.109741 
	C811.700928,231.343964 813.418274,231.578186 815.135620,231.812408 
	C809.806458,227.188095 804.613098,221.432968 797.326111,222.002396 
	C781.618469,223.229797 765.997620,225.567963 749.313477,227.575256 
	C757.744019,236.204025 764.003723,237.552353 772.594727,233.020920 
	C779.335449,229.465424 786.364258,228.445923 793.805054,229.305466 
	C798.918152,229.896118 804.035400,230.451141 809.983582,231.109741 
M224.648148,222.778305 
	C220.091522,225.385513 215.534912,227.992722 210.978287,230.599945 
	C227.295670,230.380692 243.037994,225.748001 258.280762,234.850647 
	C263.697906,238.085663 272.145416,233.977005 275.785278,228.077133 
	C266.686859,226.537766 257.725037,224.651993 248.666382,223.602036 
	C240.974258,222.710495 233.170319,222.783539 224.648148,222.778305 
z"/>
<path fill="#FFFFFF" opacity="1.000000" stroke="none" 
	d="
M105.298882,826.761597 
	C106.502533,826.841187 107.706184,826.920715 109.414047,827.417725 
	C108.902122,836.464294 108.259132,845.087769 110.382317,854.172546 
	C128.279785,839.669250 146.180908,825.493408 162.459030,809.650146 
	C180.568710,792.024170 196.798080,772.482178 214.571274,754.490723 
	C239.907822,728.843201 267.448853,705.764893 299.799591,689.321350 
	C308.386780,684.956543 318.039429,681.229980 327.495331,680.348816 
	C344.846954,678.731934 362.415253,679.316589 379.894531,679.224243 
	C404.029266,679.096741 428.165222,679.192261 452.244873,679.192261 
	C455.224365,669.569336 457.057526,668.285156 467.302887,668.289612 
	C498.295074,668.303284 529.287231,668.292053 560.279419,668.297424 
	C569.922974,668.299133 572.419250,670.219482 574.520752,679.180115 
	C598.156189,679.180115 621.787598,679.173157 645.419067,679.183228 
	C656.082336,679.187744 666.784119,679.817505 677.401001,679.127319 
	C700.305664,677.638367 720.564148,684.569702 739.643005,696.577393 
	C773.959229,718.175049 804.321350,744.505310 831.158264,774.679321 
	C852.872131,799.093262 874.961914,822.937195 901.144409,842.661621 
	C906.368530,846.597290 911.702454,850.387329 917.644897,854.725708 
	C917.873230,851.898743 918.059814,850.133606 918.151917,848.363586 
	C919.257324,827.125183 913.876282,807.081787 906.520691,787.495117 
	C902.028381,775.533020 896.867126,763.822144 892.298279,751.857544 
	C893.419739,750.743347 894.249207,749.770081 895.353394,749.025391 
	C897.884766,754.462952 900.141418,759.671875 902.111572,765.019531 
	C902.281128,765.744751 902.737183,766.331116 903.461060,767.143555 
	C915.454102,795.735291 925.702332,824.423218 922.593567,856.556580 
	C927.470886,855.217957 931.807800,854.158569 936.063721,852.838379 
	C963.811401,844.231079 985.906006,827.983582 1000.987610,803.075439 
	C1013.101685,783.068420 1019.220398,760.872925 1022.355103,737.804626 
	C1023.162903,731.859741 1024.114502,725.934326 1025.000000,720.000000 
	C1025.000000,821.640442 1025.000000,923.280823 1025.000000,1024.960693 
	C683.781067,1024.960693 342.562164,1024.960693 1.000000,1024.960693 
	C1.000000,923.641113 1.000000,822.281799 1.418767,720.579590 
	C2.918807,729.137756 3.799509,738.068665 5.121917,746.933777 
	C8.141445,767.176025 14.715589,786.286194 25.391293,803.720337 
	C39.632427,826.976868 60.107197,842.802734 85.874565,851.629028 
	C91.885277,853.687866 98.194542,854.875183 103.513565,856.243958 
	C104.140831,845.885376 104.719856,836.323486 105.298882,826.761597 
M458.304962,674.849609 
	C457.857819,676.184570 457.410675,677.519531 456.877197,679.112305 
	C494.854767,679.112305 532.289612,679.112305 569.845886,679.112305 
	C569.227478,674.128906 566.738708,672.141418 562.089966,672.152954 
	C529.980774,672.232666 497.871155,672.159424 465.762329,672.293335 
	C463.441223,672.303040 461.125305,673.562073 458.304962,674.849609 
z"/>
<path fill="#010101" opacity="1.000000" stroke="none" 
	d="
M105.262238,826.333740 
	C104.719856,836.323486 104.140831,845.885376 103.513565,856.243958 
	C98.194542,854.875183 91.885277,853.687866 85.874565,851.629028 
	C60.107197,842.802734 39.632427,826.976868 25.391293,803.720337 
	C14.715589,786.286194 8.141445,767.176025 5.121917,746.933777 
	C3.799509,738.068665 2.918807,729.137756 1.418767,720.118347 
	C1.000000,706.312439 1.000000,692.624878 0.999998,678.468628 
	C1.343631,677.182373 1.952314,676.377625 1.992609,675.545349 
	C3.461066,645.215149 7.897035,615.240845 15.631967,585.968262 
	C24.273323,553.265503 34.145741,520.867004 44.266949,488.582062 
	C54.676224,455.378296 65.480865,422.275391 77.130959,389.490265 
	C88.406082,357.760345 100.977425,326.490997 112.979439,295.019379 
	C113.589058,295.150818 114.198677,295.282288 114.808296,295.413727 
	C116.183037,300.516907 117.323807,305.696899 118.970375,310.710815 
	C129.905472,344.008881 149.709625,357.537903 184.576645,353.974854 
	C199.391830,352.460907 213.951263,348.442719 228.625870,345.557220 
	C229.910660,345.304565 231.187515,345.011505 231.698563,344.902039 
	C231.698563,357.088196 232.587036,369.261444 231.524460,381.261932 
	C228.823608,411.765076 226.678055,442.424255 221.749023,472.602661 
	C208.568802,553.299683 188.071930,631.930786 152.147873,705.992371 
	C138.810349,733.489197 126.669823,761.604187 115.026878,789.867126 
	C110.322105,801.287781 108.409073,813.858459 105.262238,826.333740 
M138.263901,432.206482 
	C136.920944,432.863342 135.503601,433.402710 134.247986,434.197540 
	C129.001343,437.518921 126.580162,443.469452 127.818130,449.758820 
	C129.088577,456.213165 133.502350,460.781586 139.529465,461.880493 
	C145.904892,463.042908 151.901428,460.313721 155.199951,454.606750 
	C158.217072,449.386658 158.040726,444.008362 154.965805,438.987030 
	C151.373444,433.120728 145.840698,431.027130 138.263901,432.206482 
z"/>
<path fill="#010101" opacity="1.000000" stroke="none" 
	d="
M902.398071,764.880798 
	C900.141418,759.671875 897.884766,754.462952 895.334717,748.663879 
	C880.829163,717.175232 866.367371,686.388000 852.532593,655.321472 
	C847.287354,643.543152 843.486938,631.121460 839.027954,618.992981 
	C831.175720,589.092896 822.719788,559.335693 815.599304,529.262329 
	C801.585327,470.074707 794.729797,409.928223 793.485046,349.132538 
	C793.458374,347.831512 793.481628,346.529449 793.481628,344.612274 
	C802.425232,346.648254 810.857422,349.115570 819.466187,350.395081 
	C831.436035,352.174225 843.561218,354.299164 855.578918,354.075195 
	C880.437012,353.612030 896.998169,340.566528 905.262878,317.165527 
	C907.679138,310.323822 909.621277,303.314606 912.032593,295.573608 
	C913.200012,297.908112 914.289978,299.822205 915.144714,301.836151 
	C934.767639,348.074799 951.549438,395.363617 967.047729,443.113403 
	C976.789856,473.128845 986.655640,503.119263 995.549438,533.390198 
	C1002.796875,558.057678 1009.744995,582.909302 1014.856567,608.079224 
	C1019.377258,630.339050 1021.180786,653.150696 1024.592041,675.859375 
	C1025.000000,690.354248 1025.000000,704.708435 1025.000000,719.531372 
	C1024.114502,725.934326 1023.162903,731.859741 1022.355103,737.804626 
	C1019.220398,760.872925 1013.101685,783.068420 1000.987610,803.075439 
	C985.906006,827.983582 963.811401,844.231079 936.063721,852.838379 
	C931.807800,854.158569 927.470886,855.217957 922.593567,856.556580 
	C925.702332,824.423218 915.454102,795.735291 903.470093,766.855225 
	C902.940186,765.854126 902.669067,765.367493 902.398071,764.880798 
M870.895081,439.646912 
	C867.967957,445.941193 868.334106,451.879181 872.999084,457.225830 
	C876.866089,461.657928 881.893616,462.860779 887.447815,461.635559 
	C893.766846,460.241516 898.518066,454.511169 898.929810,448.232025 
	C899.398987,441.076843 895.613403,435.134064 889.000549,432.644348 
	C882.530518,430.208435 876.270874,432.444885 870.895081,439.646912 
z"/>
<path fill="#010101" opacity="1.000000" stroke="none" 
	d="
M892.006287,751.998413 
	C896.867126,763.822144 902.028381,775.533020 906.520691,787.495117 
	C913.876282,807.081787 919.257324,827.125183 918.151917,848.363586 
	C918.059814,850.133606 917.873230,851.898743 917.644897,854.725708 
	C911.702454,850.387329 906.368530,846.597290 901.144409,842.661621 
	C874.961914,822.937195 852.872131,799.093262 831.158264,774.679321 
	C804.321350,744.505310 773.959229,718.175049 739.643005,696.577393 
	C720.564148,684.569702 700.305664,677.638367 677.401001,679.127319 
	C666.784119,679.817505 656.082336,679.187744 645.419067,679.183228 
	C621.787598,679.173157 598.156189,679.180115 574.520752,679.180115 
	C572.419250,670.219482 569.922974,668.299133 560.279419,668.297424 
	C529.287231,668.292053 498.295074,668.303284 467.302887,668.289612 
	C457.057526,668.285156 455.224365,669.569336 452.244873,679.192261 
	C428.165222,679.192261 404.029266,679.096741 379.894531,679.224243 
	C362.415253,679.316589 344.846954,678.731934 327.495331,680.348816 
	C318.039429,681.229980 308.386780,684.956543 299.799591,689.321350 
	C267.448853,705.764893 239.907822,728.843201 214.571274,754.490723 
	C196.798080,772.482178 180.568710,792.024170 162.459030,809.650146 
	C146.180908,825.493408 128.279785,839.669250 110.382317,854.172546 
	C108.259132,845.087769 108.902122,836.464294 109.866425,827.418030 
	C116.683037,788.159851 134.556030,753.525024 151.359863,718.493347 
	C166.594269,686.733582 180.677307,654.509705 191.702957,620.312378 
	C192.004715,619.150635 192.072937,618.604675 192.141174,618.058655 
	C197.088867,600.836487 202.437149,583.717590 206.908966,566.372742 
	C220.181335,514.893433 230.430054,462.832886 234.496185,409.743744 
	C236.072998,389.156128 236.624435,368.485260 237.358261,347.842224 
	C237.489349,344.155090 238.619690,342.763336 242.140335,341.790344 
	C253.711472,338.592285 264.910492,334.427734 274.718811,327.183136 
	C287.864197,317.473724 295.044434,303.702667 300.941620,289.035645 
	C301.995422,286.414795 303.134460,283.809113 303.931458,281.107086 
	C309.672699,261.642212 325.046600,254.682861 342.876984,254.172546 
	C377.677734,253.176514 412.527985,253.908569 447.357758,253.941925 
	C448.461639,253.942993 449.565369,254.129135 451.063202,254.264648 
	C448.836060,259.895477 444.480072,261.019043 439.686127,261.083618 
	C430.188629,261.211609 420.688660,261.176147 411.189697,261.169922 
	C389.525085,261.155701 367.860443,261.120850 346.195831,261.089417 
	C332.816437,261.070007 325.475067,267.618805 324.177643,281.027374 
	C321.753662,306.078979 320.354523,331.147736 321.080414,356.364288 
	C322.432617,403.335876 323.137756,450.325867 324.357758,497.301819 
	C324.492981,502.508636 325.189056,508.183685 327.437164,512.749268 
	C331.711517,521.429932 339.703552,524.830811 349.336945,524.810242 
	C387.333282,524.729004 425.329834,524.762451 463.326324,524.753418 
	C465.320251,524.752930 467.314148,524.753296 469.629974,524.753296 
	C470.000671,529.501953 470.092560,534.124084 470.773193,538.657837 
	C472.060486,547.232971 477.915894,552.967224 486.613647,553.150330 
	C504.267303,553.521912 521.940613,553.601257 539.591797,553.194275 
	C549.395813,552.968262 555.410156,546.288574 556.042786,536.508423 
	C556.288147,532.715881 556.401611,528.914795 556.592163,524.745239 
	C558.786072,524.745239 560.596375,524.745056 562.406677,524.745239 
	C599.069946,524.749634 635.733215,524.754456 672.396484,524.757202 
	C674.396240,524.757385 676.397217,524.781799 678.395630,524.726013 
	C692.418274,524.334656 701.608826,515.528687 701.972229,501.560455 
	C702.856384,467.577881 703.528381,433.589813 704.272034,399.603638 
	C704.734985,378.446503 705.815552,357.277161 705.433289,336.134766 
	C705.081543,316.679535 703.467651,297.224762 701.773804,277.825317 
	C700.882141,267.611969 692.408875,261.120941 681.500366,261.108398 
	C651.336670,261.073730 621.172668,261.174438 591.009155,261.098511 
	C587.567200,261.089844 583.976624,260.763519 580.738281,259.711945 
	C578.515869,258.990295 576.784180,256.757233 574.833130,255.199783 
	C575.046753,254.764465 575.260315,254.329147 575.473938,253.893829 
	C577.057739,253.893829 578.641479,253.895309 580.225281,253.893616 
	C614.055420,253.857330 647.885742,253.742584 681.715576,253.830093 
	C692.323547,253.857544 701.946899,257.501007 710.738525,263.294098 
	C717.536072,267.773254 720.106995,275.083008 723.215393,282.110779 
	C727.508240,291.816498 731.528442,301.743042 736.892639,310.852325 
	C746.098450,326.485352 761.245178,334.442902 777.939697,339.885773 
	C788.756042,343.412231 788.680237,343.440430 788.944702,354.730682 
	C790.172241,407.134369 795.336792,459.149048 806.961853,510.283173 
	C815.212097,546.572754 825.116455,582.486267 834.544006,619.225037 
	C843.466553,647.268066 854.189148,673.838684 866.589172,699.730591 
	C874.957031,717.203247 883.526794,734.579224 892.006287,751.998413 
M554.099548,588.296326 
	C554.076782,584.969055 554.227112,581.629456 553.992615,578.317200 
	C553.587585,572.594971 549.976501,569.001770 544.350525,568.973450 
	C523.717834,568.869568 503.084320,568.855225 482.451538,568.929932 
	C476.578705,568.951172 472.813721,572.082520 472.366882,577.834351 
	C471.674286,586.749329 470.384216,596.051697 479.526001,602.187866 
	C480.186707,602.631287 480.639069,603.419983 481.113312,604.100403 
	C483.406433,607.390686 486.585632,608.693054 490.539124,608.683167 
	C505.847229,608.644836 521.160034,608.885437 536.459656,608.530151 
	C539.194397,608.466675 542.063660,606.345764 544.521484,604.664185 
	C546.529297,603.290527 548.430908,601.394287 549.636780,599.301758 
	C551.460632,596.136902 552.638916,592.600037 554.099548,588.296326 
M656.514160,586.084900 
	C654.189026,574.933289 647.331116,568.395447 636.824158,567.314026 
	C627.899292,566.395386 618.545654,571.905212 615.047180,580.142029 
	C611.555115,588.363708 613.403564,598.153564 619.584595,604.173340 
	C626.142944,610.560608 635.651733,612.473267 643.560303,608.995911 
	C652.245422,605.177063 657.060730,597.069336 656.514160,586.084900 
M640.188538,557.663208 
	C641.581726,560.170105 642.587402,559.969788 645.079407,558.229126 
	C649.868713,554.883850 649.200928,550.532959 648.796204,546.009705 
	C648.192932,539.266418 643.769165,534.260742 637.537964,533.111389 
	C631.502197,531.997925 625.748840,534.970276 622.658936,540.798340 
	C619.507080,546.743469 620.483948,554.455566 625.244812,558.566772 
	C626.077576,559.285889 628.009094,558.732544 629.433167,558.766907 
	C629.494629,555.496399 629.922974,552.164612 629.393921,548.992615 
	C629.235168,548.041199 626.406311,547.535156 624.670471,546.767517 
	C625.338440,539.544189 629.606934,535.376038 636.180969,535.881714 
	C641.994446,536.328979 645.899353,541.456360 645.511047,548.262268 
	C641.894531,546.143250 640.227234,547.398193 640.181274,551.350220 
	C640.159912,553.182373 640.138123,555.014526 640.188538,557.663208 
z"/>
<path fill="#010101" opacity="1.000000" stroke="none" 
	d="
M602.997192,493.931274 
	C539.500549,493.933014 476.503174,493.976532 413.506042,493.865234 
	C407.558563,493.854706 402.763794,495.139069 399.380981,500.431427 
	C398.722198,501.462067 396.661682,502.055054 395.240540,502.068207 
	C382.908966,502.181946 370.574677,502.211334 358.243378,502.072113 
	C350.087891,501.980072 346.073151,497.890381 345.944305,489.640839 
	C345.226013,443.651550 344.292023,397.662933 344.029144,351.670654 
	C343.929382,334.222198 345.320282,316.759308 346.236633,299.313782 
	C346.625336,291.913849 350.132507,287.806824 356.729919,287.766266 
	C388.212860,287.572540 419.697693,287.679474 451.799133,287.679474 
	C453.121765,297.402313 460.011841,298.833984 468.285004,298.204193 
	C471.390839,297.967773 474.529755,298.165894 477.580475,298.165894 
	C479.380646,312.061401 479.380646,312.070526 493.069580,312.081818 
	C507.402313,312.093658 521.735046,312.095184 536.067749,312.083038 
	C546.101318,312.074554 547.606323,310.641205 548.126587,300.742157 
	C548.160461,300.098480 548.294922,299.460114 548.470520,298.176422 
	C552.455200,298.176422 556.396912,298.193512 560.338562,298.172943 
	C569.331055,298.126068 571.794006,296.341797 574.505798,287.770691 
	C575.385437,287.706238 576.358826,287.573395 577.332397,287.572479 
	C607.164429,287.544617 636.996399,287.506378 666.828430,287.527161 
	C675.681641,287.533325 678.967102,290.951660 680.130554,299.524292 
	C685.183777,336.756958 681.272705,374.083893 681.441772,411.360504 
	C681.558899,437.185333 680.680908,463.014374 680.275330,488.842010 
	C680.128662,498.181793 676.221008,502.081909 666.787354,502.106964 
	C654.954590,502.138367 643.121277,502.188354 631.289429,502.088318 
	C629.831299,502.076019 627.681946,501.638031 627.041626,500.636871 
	C623.304443,494.794617 617.922485,493.352264 611.492493,493.879669 
	C608.843628,494.096954 606.162842,493.925201 602.997192,493.931274 
M402.500000,319.943268 
	C387.334534,319.936096 372.169006,319.905640 357.003632,319.938843 
	C353.412354,319.946686 353.412567,320.044983 353.758575,323.777039 
	C460.007507,323.777039 566.272949,323.777039 672.612183,323.777039 
	C673.888977,318.697693 670.187195,319.977142 667.979309,319.976013 
	C579.819519,319.930634 491.659760,319.940704 402.500000,319.943268 
z"/>
<path fill="#060606" opacity="1.000000" stroke="none" 
	d="
M696.567505,489.745728 
	C696.410828,494.216675 696.285828,498.214264 696.153564,502.211578 
	C695.820435,512.283752 689.121765,518.963440 678.938354,518.998962 
	C652.773865,519.090271 626.608948,519.049805 600.444153,519.056946 
	C584.778625,519.061218 569.113037,519.055847 553.447510,519.054871 
	C551.808838,519.054749 550.170105,519.054810 548.720581,519.054810 
	C548.487976,518.475525 548.373962,518.332458 548.385376,518.200073 
	C549.406860,506.291565 549.407532,506.320648 561.298401,506.316589 
	C596.629089,506.304535 631.959900,506.293884 667.290466,506.224426 
	C678.173584,506.203033 684.219543,500.374939 684.396179,489.794861 
	C685.269897,437.476410 686.331726,385.159241 686.786804,332.836945 
	C686.894897,320.407410 685.093262,307.942871 683.837036,295.528107 
	C683.249817,289.725250 678.129395,284.917267 672.303528,283.939850 
	C670.018250,283.556396 667.669922,283.396057 665.350159,283.394196 
	C636.685608,283.371063 608.021118,283.396088 579.356567,283.408569 
	C577.556702,283.409332 575.756836,283.408722 573.210449,283.408722 
	C573.210449,279.741638 573.092773,276.460724 573.243958,273.192261 
	C573.391418,270.004639 571.818726,268.973511 568.893616,268.350037 
	C565.786865,267.687805 562.859985,266.181458 559.854553,265.043762 
	C559.943848,264.489685 560.033203,263.935608 560.122498,263.381531 
	C560.975952,262.864166 561.829407,262.346771 563.868042,261.110931 
	C561.573730,260.201660 560.015198,259.049713 558.452209,259.043610 
	C528.454834,258.926239 498.456879,258.924591 468.459229,258.989349 
	C466.992798,258.992523 465.528107,259.820282 464.062592,260.264038 
	C463.826935,260.766815 463.591248,261.269562 463.355591,261.772339 
	C464.453033,262.293945 465.550476,262.815552 466.501160,263.267395 
	C463.887634,266.982239 460.956726,269.155853 456.382812,268.959381 
	C455.322723,268.913849 453.409912,271.337463 453.183899,272.821991 
	C452.691345,276.057068 453.031738,279.418884 453.031738,283.421997 
	C450.681396,283.421997 448.902344,283.422485 447.123291,283.421875 
	C419.125305,283.412445 391.127350,283.393066 363.129364,283.409119 
	C360.469391,283.410645 357.788025,283.460388 355.153687,283.786835 
	C347.642242,284.717560 342.795532,289.200928 342.252594,296.703522 
	C341.112183,312.462311 339.609863,328.259033 339.706970,344.031219 
	C339.992126,390.356537 340.986755,436.677490 341.703796,483.000153 
	C341.742493,485.499481 341.717346,488.001892 341.835419,490.497498 
	C342.301666,500.355133 348.218597,506.181885 358.100677,506.219299 
	C384.431732,506.319031 410.763245,506.309143 437.094574,506.335266 
	C447.593811,506.345703 458.093079,506.344879 468.592316,506.332855 
	C476.104462,506.324249 476.115326,506.310272 477.423553,513.858826 
	C477.700684,515.457825 477.866516,517.076172 478.135834,519.072571 
	C475.496582,519.072571 473.195862,519.072754 470.895142,519.072510 
	C430.398041,519.068237 389.900940,519.077820 349.403839,519.051270 
	C336.831421,519.043030 330.321564,512.625244 330.050873,500.108521 
	C328.818695,443.130585 327.220001,386.156799 326.580292,329.172241 
	C326.388397,312.083405 328.676208,294.946747 330.224152,277.867889 
	C330.873993,270.697906 337.188995,265.937622 345.149811,265.898560 
	C363.314728,265.809418 381.480377,265.866882 399.645721,265.862549 
	C412.978088,265.859375 426.310669,265.894745 439.642792,265.833893 
	C449.967682,265.786743 454.230103,262.670868 457.225494,252.831680 
	C458.240112,249.498871 460.755615,249.746658 463.216705,249.747528 
	C473.214661,249.751114 483.212616,249.859619 493.210602,249.868332 
	C516.375610,249.888535 539.540771,249.921005 562.705383,249.824738 
	C566.505432,249.808929 568.715515,250.482910 569.473572,254.963547 
	C570.542114,261.279297 576.271545,265.158752 583.922546,265.761536 
	C586.740417,265.983521 589.585449,265.890076 592.418091,265.889435 
	C620.082764,265.883240 647.747498,265.863098 675.412170,265.853516 
	C692.151245,265.847748 695.184204,269.574158 697.095093,285.975769 
	C702.195862,329.757050 698.663086,373.529510 698.043823,417.306824 
	C697.704346,441.297333 697.087646,465.283905 696.567505,489.745728 
z"/>
<path fill="#060606" opacity="1.000000" stroke="none" 
	d="
M795.012634,208.036713 
	C776.985535,211.137085 758.947388,214.176453 740.944397,217.410934 
	C738.551147,217.840927 735.884949,218.755600 734.126404,220.322601 
	C729.599854,224.356110 724.911377,224.026688 719.407532,222.923798 
	C714.430908,221.926529 709.130615,222.300613 703.983521,222.445175 
	C690.830078,222.814606 677.680359,223.345123 664.536133,223.961411 
	C663.199097,224.024094 661.909729,225.105591 660.598267,225.714294 
	C661.906738,226.582535 663.231812,228.227295 664.521179,228.199875 
	C678.674255,227.898804 692.819336,227.100616 706.971802,226.956726 
	C713.057617,226.894836 719.150513,228.110428 725.252014,228.595825 
	C726.811401,228.719879 728.886719,228.848999 729.926514,227.998993 
	C739.083252,220.513901 750.330261,219.598526 761.259033,217.657410 
	C769.943359,216.114944 778.661621,214.753891 787.322510,213.091629 
	C805.041321,209.690857 821.256958,214.686981 837.114746,221.767532 
	C845.008728,225.292267 852.795105,229.062378 860.731201,232.487183 
	C865.259827,234.441483 869.974792,235.334732 875.131409,231.658554 
	C878.052063,241.464752 880.893127,251.003799 884.111206,261.808563 
	C871.565186,254.548782 860.632874,247.995605 849.485535,241.831146 
	C836.257874,234.516235 822.868347,227.492020 809.504211,220.426544 
	C800.924011,215.890335 791.801514,216.558258 782.654175,217.997726 
	C772.133789,219.653244 761.599487,221.235275 751.112244,223.082047 
	C740.882263,224.883499 736.461548,229.500061 734.727417,239.727585 
	C733.958435,244.263092 733.330627,248.822510 732.533020,254.065964 
	C722.713257,245.891174 711.479126,245.652283 700.079102,245.774445 
	C685.603271,245.929565 671.124451,245.811966 655.578918,245.811966 
	C658.324402,227.380585 653.474487,210.525848 645.337036,194.924973 
	C661.322021,186.903061 676.391357,177.960312 692.522705,171.797028 
	C701.278625,168.451675 711.868469,168.962494 721.585083,169.256409 
	C748.131409,170.059387 774.338623,173.621460 799.693420,181.988312 
	C823.269714,189.768234 845.408936,200.286469 864.166321,216.924622 
	C867.590454,219.961929 870.364075,223.732620 873.535706,227.273865 
	C869.447266,231.173828 865.562317,229.978500 861.889343,228.406265 
	C854.712830,225.334259 847.782227,221.653564 840.508606,218.850876 
	C830.923340,215.157501 821.201660,211.737183 811.343140,208.872162 
	C807.139038,207.650391 802.440552,208.129913 797.461060,207.501999 
	C794.931946,200.341736 789.043335,197.973770 783.257568,196.051544 
	C761.762939,188.910217 739.664856,185.469833 716.967896,185.842636 
	C708.345703,185.984283 700.653381,188.294632 693.677246,193.421707 
	C683.355042,201.007950 672.850403,208.346024 662.521667,215.923630 
	C661.707275,216.521103 661.658997,218.162857 661.254639,219.319275 
	C661.786621,219.589447 662.318542,219.859619 662.850525,220.129791 
	C667.859497,216.877228 672.954102,213.748016 677.856506,210.342056 
	C684.551758,205.690521 691.110352,200.841568 697.709473,196.052383 
	C703.586243,191.787384 710.175903,190.126358 717.390503,189.989746 
	C738.061584,189.598297 758.225525,193.041489 777.958862,198.640930 
	C784.042297,200.367126 789.349854,204.827972 795.012634,208.036713 
z"/>
<path fill="#060606" opacity="1.000000" stroke="none" 
	d="
M229.894913,207.740128 
	C214.357147,206.623840 200.537827,212.560379 186.735733,218.401688 
	C179.087250,221.638702 171.703537,225.517776 163.989563,228.575287 
	C161.058304,229.737152 157.535843,229.407471 154.282837,229.757599 
	C153.977310,229.085785 153.671768,228.413956 153.366241,227.742126 
	C155.895844,224.573074 158.079773,221.033981 161.011383,218.295227 
	C179.517593,201.006607 201.926926,190.596207 225.548935,182.540329 
	C254.061188,172.816757 283.648956,169.982559 313.558807,168.789429 
	C328.523712,168.192490 341.008850,173.879410 353.474548,180.936768 
	C362.237457,185.897827 371.503876,189.969467 381.235718,194.779434 
	C372.972717,209.996124 368.455170,226.954163 371.176544,245.568558 
	C368.733215,245.696899 367.126434,245.854309 365.519684,245.854187 
	C352.020081,245.853088 338.518341,245.963303 325.021545,245.757980 
	C314.012817,245.590515 303.338623,246.338852 294.234009,254.255081 
	C293.121216,247.860764 292.280762,242.106049 291.089142,236.424973 
	C289.692871,229.768066 285.479187,225.187424 278.875610,224.039536 
	C263.642639,221.391647 248.358734,218.824097 232.989029,217.291718 
	C227.697662,216.764160 221.485062,218.264725 216.730515,220.790939 
	C193.978378,232.879684 171.574554,245.624664 149.073608,258.184174 
	C147.212280,259.223114 145.550095,260.618866 142.495193,262.760223 
	C145.694916,251.828522 148.528915,242.146301 151.516968,231.937714 
	C157.516785,235.542404 162.816910,233.994980 168.064667,231.601074 
	C176.229752,227.876389 184.453674,224.274933 192.549789,220.405960 
	C209.363068,212.371231 226.762802,210.166336 245.064117,214.061783 
	C256.617004,216.520813 268.385956,217.981903 279.907928,220.561066 
	C284.785706,221.652924 289.429138,224.186539 293.891937,226.596527 
	C296.800354,228.167130 299.277527,228.667450 302.714203,228.368149 
	C312.442352,227.520874 322.255676,227.420090 332.034241,227.447433 
	C341.858490,227.474899 351.680847,228.028305 361.505157,228.311386 
	C364.044647,228.384567 366.357697,228.054382 365.677185,224.431946 
	C365.270477,224.270523 364.824188,223.950928 364.365448,223.931976 
	C349.723328,223.326950 335.083618,222.504440 320.435089,222.286484 
	C314.173431,222.193314 307.736450,224.493881 301.665466,223.649139 
	C295.738495,222.824432 290.362274,218.467545 284.419006,217.252655 
	C267.308563,213.755051 250.033783,211.061249 232.388031,207.694611 
	C236.991882,204.531250 241.727432,200.472214 247.129654,199.162003 
	C261.298401,195.725586 275.757904,193.488098 290.101440,190.772324 
	C310.096191,186.986572 327.617706,191.859879 342.566956,205.750610 
	C342.931732,206.089539 343.317719,206.414230 343.729675,206.692459 
	C350.562042,211.306564 357.400177,215.912170 364.237000,220.519669 
	C364.760101,220.147598 365.283173,219.775513 365.806274,219.403442 
	C365.211243,218.168625 364.946198,216.482803 363.970215,215.768677 
	C354.043335,208.505463 343.895142,201.542526 334.024323,194.205673 
	C326.391907,188.532516 318.093994,185.100769 308.539886,185.956268 
	C293.337097,187.317581 278.050232,188.346359 263.025818,190.867783 
	C253.845474,192.408447 244.907196,196.042526 236.249207,199.665939 
	C233.488312,200.821381 231.977646,204.964218 229.894913,207.740128 
z"/>
<path fill="#030303" opacity="1.000000" stroke="none" 
	d="
M157.079407,294.249603 
	C164.338028,293.961731 169.248123,289.989594 172.584579,284.758484 
	C179.093704,274.552979 184.884476,263.888275 190.932388,253.390472 
	C192.092621,251.376587 193.063919,249.254074 194.128372,247.184753 
	C197.338181,240.944855 202.222977,237.392853 209.420273,236.788620 
	C218.039978,236.064987 226.610092,234.256897 235.222000,234.110138 
	C240.831421,234.014526 247.040573,234.906219 251.986618,237.360062 
	C261.659515,242.158997 269.563934,240.254364 277.294800,233.858612 
	C282.100433,229.882935 284.616241,230.485626 286.180084,236.666748 
	C287.888489,243.419342 288.832794,250.367203 290.034851,257.243134 
	C290.167542,258.001892 289.992523,258.939270 289.646210,259.638245 
	C283.827545,271.383240 278.138794,283.198761 272.005585,294.778473 
	C269.807678,298.928223 266.510284,302.495575 263.714722,306.328766 
	C263.119537,306.206146 262.524323,306.083496 261.929138,305.960876 
	C259.953796,297.357300 257.563812,288.823334 256.104919,280.133057 
	C254.150360,268.490509 252.959106,256.721008 251.321655,245.022598 
	C251.107742,243.494400 250.191513,242.064499 248.673325,240.894196 
	C249.668259,263.801361 252.027802,286.323944 260.336639,309.190948 
	C252.439667,312.180481 244.587616,315.673126 236.425095,318.137329 
	C218.062225,323.680817 199.352493,327.620178 180.056259,327.939392 
	C164.534134,328.196198 152.937347,321.860168 146.933899,307.165558 
	C144.066788,300.147797 141.958252,292.806885 139.742172,285.540344 
	C137.791168,279.143097 140.857941,274.338043 144.937454,270.228058 
	C145.903946,275.915436 146.605331,281.710724 147.940475,287.356079 
	C148.954056,291.641754 152.105347,294.035095 157.079407,294.249603 
z"/>
<path fill="#030303" opacity="1.000000" stroke="none" 
	d="
M753.007324,291.956726 
	C747.457092,280.775085 742.046326,269.935944 736.694275,259.067902 
	C736.365173,258.399689 736.315247,257.470459 736.448120,256.717834 
	C737.575500,250.331131 738.485901,243.883041 740.092285,237.615051 
	C740.761047,235.005524 742.959717,232.788101 744.544678,230.261719 
	C748.346558,233.072281 751.155884,235.418427 754.223877,237.354721 
	C758.952942,240.339310 764.603943,242.041183 769.390076,239.087769 
	C781.101196,231.861206 793.390564,233.816925 805.787537,235.286942 
	C809.257202,235.698364 812.693604,236.606735 816.165894,236.737167 
	C824.499512,237.050232 829.566040,241.610504 833.156860,248.656311 
	C837.760010,257.688232 842.134827,266.886566 847.471130,275.477051 
	C851.007446,281.169891 855.368774,286.796204 860.580994,290.904083 
	C869.872375,298.226898 878.424194,294.315338 880.234924,282.599396 
	C880.864685,278.524475 880.772888,274.338013 881.063538,269.280548 
	C884.622253,273.140625 887.632507,276.892212 887.293457,281.886200 
	C886.277039,296.857666 880.489807,310.020111 870.081055,320.734161 
	C864.485901,326.493408 856.405945,328.371063 848.793030,327.662262 
	C833.109009,326.202057 817.364624,324.333771 801.981018,321.056610 
	C790.893555,318.694641 780.342163,313.803192 769.573303,309.979034 
	C768.523499,309.606232 767.626099,308.804138 766.696716,308.225433 
	C773.907776,287.312378 776.815979,265.818573 778.390869,244.093597 
	C778.462708,243.102219 777.495422,242.035522 777.012146,241.003891 
	C776.346252,242.138016 775.268738,243.206665 775.076355,244.416077 
	C772.334595,261.656036 769.770020,278.924255 767.010864,296.161346 
	C766.492432,299.399963 765.312866,302.532806 763.007874,306.520325 
	C759.725281,301.777802 756.442627,297.035309 753.007324,291.956726 
z"/>
<path fill="#070707" opacity="1.000000" stroke="none" 
	d="
M523.000122,194.262024 
	C560.661865,194.246902 597.824036,194.312134 634.984680,194.101532 
	C639.031677,194.078598 640.930420,195.311508 642.255737,198.976685 
	C645.174988,207.050278 648.457886,214.992386 651.862793,223.677795 
	C559.104431,223.677795 467.555542,223.677795 374.448761,223.677795 
	C378.506958,213.779739 382.124481,204.569214 386.196228,195.564056 
	C386.654144,194.551346 389.679688,194.362717 391.515594,194.359375 
	C435.177002,194.279770 478.838593,194.277954 523.000122,194.262024 
M537.947754,219.812378 
	C543.884827,218.773453 546.302063,216.567108 546.116760,212.356079 
	C545.935486,208.236313 542.759766,205.773010 537.226685,205.753296 
	C521.109253,205.695877 504.991241,205.677048 488.873932,205.745682 
	C483.649353,205.767929 480.163879,208.645111 480.072296,212.616608 
	C479.983521,216.467316 483.545532,219.439621 488.702240,219.755676 
	C490.192719,219.847031 491.692200,219.801590 493.187531,219.802399 
	C507.809723,219.810364 522.431885,219.814819 537.947754,219.812378 
M581.108398,206.711197 
	C587.293701,208.602020 593.480286,209.266678 599.493835,206.212936 
	C603.892761,203.979111 604.027283,201.020172 599.654053,198.665237 
	C593.564209,195.385941 587.110046,195.944763 580.863403,198.192688 
	C579.232239,198.779678 577.179626,200.655792 577.020996,202.123627 
	C576.885437,203.377853 579.187134,204.895523 581.108398,206.711197 
M561.345886,199.722076 
	C559.418579,200.405487 557.491333,201.088898 555.047791,201.955368 
	C559.753296,206.415298 562.893188,206.338623 566.294861,202.118607 
	C564.870361,201.317886 563.521851,200.559830 561.345886,199.722076 
z"/>
<path fill="#070707" opacity="1.000000" stroke="none" 
	d="
M651.334717,239.176514 
	C651.339294,241.589630 651.339294,243.535385 651.339294,245.638733 
	C559.108948,245.638733 467.405029,245.638733 375.364594,245.638733 
	C375.364594,239.797821 375.364594,234.216675 375.364594,228.311584 
	C467.153412,228.311584 559.001526,228.311584 651.330200,228.311584 
	C651.330200,231.791428 651.330200,235.250275 651.334717,239.176514 
z"/>
<path fill="#060606" opacity="1.000000" stroke="none" 
	d="
M898.510864,273.495422 
	C908.285767,283.399323 909.832336,294.269287 904.175110,306.509003 
	C902.303467,310.558441 901.416138,315.051666 899.721252,319.195770 
	C891.620239,339.004120 876.532898,348.826691 855.403687,349.964844 
	C837.681274,350.919525 820.720459,346.721069 803.756287,342.500885 
	C800.252075,341.629120 796.766541,340.682343 793.138184,339.735107 
	C793.418762,335.541626 793.669434,331.794983 793.914124,328.138031 
	C806.407288,330.304596 818.579651,333.081085 830.906921,334.335846 
	C840.222473,335.284058 849.821167,335.036102 859.140320,333.973846 
	C871.757568,332.535614 879.905457,324.220642 885.624268,313.419434 
	C893.027649,299.436493 897.494873,284.845245 894.564575,268.383301 
	C895.802063,269.996887 897.039551,271.610474 898.510864,273.495422 
z"/>
<path fill="#060606" opacity="1.000000" stroke="none" 
	d="
M191.963989,348.973419 
	C183.387039,349.221222 175.191833,350.196899 167.141602,349.499298 
	C146.716888,347.729370 133.147018,336.444397 126.055649,317.404999 
	C123.686371,311.043762 122.060692,304.407959 120.022430,297.920471 
	C117.844414,290.988220 119.243530,284.852722 123.770226,279.252197 
	C126.244377,276.191132 128.506775,272.958862 130.864670,269.803802 
	C131.292130,269.908478 131.719589,270.013153 132.147049,270.117828 
	C132.028519,272.428925 131.934891,274.741638 131.787415,277.050903 
	C130.799561,292.518921 136.104614,306.255951 144.282852,318.835052 
	C154.397491,334.392517 170.407913,336.962006 187.065872,335.292999 
	C201.409790,333.855804 215.575546,330.641602 229.821213,328.219818 
	C230.628494,328.082581 231.446121,328.006226 233.044952,327.800323 
	C233.044952,331.111237 233.294495,334.226379 232.922424,337.265381 
	C232.773071,338.485413 231.434479,340.295624 230.337433,340.551361 
	C217.728882,343.490417 205.062637,346.181946 191.963989,348.973419 
z"/>
<path fill="#060606" opacity="1.000000" stroke="none" 
	d="
M423.004639,497.992371 
	C486.943542,497.987946 550.383484,497.993103 613.823425,497.957367 
	C617.217407,497.955444 620.420044,498.054199 622.705688,502.124115 
	C619.673096,502.124115 617.103149,502.125336 614.533142,502.123962 
	C595.384583,502.113708 576.236023,502.097321 557.087463,502.094757 
	C548.642578,502.093658 546.308289,504.154358 545.035095,512.616699 
	C544.739807,514.579346 544.366760,516.530334 543.995728,518.682251 
	C523.384216,518.682251 502.969849,518.682251 482.234528,518.682251 
	C481.835632,516.238708 481.434479,513.980042 481.102509,511.711273 
	C480.049469,504.514954 477.479950,502.183380 470.266602,502.173950 
	C448.292938,502.145203 426.319183,502.163513 404.345490,502.163513 
	C404.146515,501.703735 403.947571,501.243958 403.748596,500.784210 
	C405.838135,499.856689 407.867310,498.351471 410.030121,498.125610 
	C414.148346,497.695496 418.342834,497.996155 423.004639,497.992371 
z"/>
<path fill="#080908" opacity="1.000000" stroke="none" 
	d="
M306.892181,255.651520 
	C312.569519,254.636185 317.895844,253.793243 323.222168,252.950287 
	C323.352356,253.410645 323.482513,253.871017 323.612671,254.331390 
	C322.122711,255.061310 320.665344,255.869186 319.137299,256.507996 
	C311.513184,259.695312 306.294189,265.339600 302.963623,272.719879 
	C300.162994,278.925842 297.531677,285.221985 295.140808,291.596527 
	C286.502716,314.627289 270.212799,329.203644 246.687210,335.914886 
	C243.854523,336.722992 241.027374,337.550446 237.597855,338.542419 
	C237.393936,334.347839 237.212769,330.620758 237.036072,326.986084 
	C243.077911,324.699127 248.840454,322.668976 254.484222,320.349792 
	C265.877380,315.668060 274.283661,307.644897 279.868134,296.728333 
	C284.333221,287.999939 288.634949,279.186310 292.899231,270.357391 
	C295.940948,264.059753 299.707977,258.524261 306.892181,255.651520 
z"/>
<path fill="#080908" opacity="1.000000" stroke="none" 
	d="
M785.042786,325.110474 
	C787.972656,325.694916 789.601257,326.659027 789.109924,329.820984 
	C788.707703,332.409424 789.028015,335.110107 789.028015,338.494781 
	C776.299683,335.078430 764.482971,331.258514 754.206726,323.563660 
	C745.022339,316.686432 738.883850,307.511475 734.032471,297.368286 
	C731.816345,292.734985 729.683350,288.005920 728.124878,283.124847 
	C723.904602,269.907074 716.894165,259.255096 702.258789,254.368088 
	C716.747192,251.970627 725.979736,256.219788 732.168518,267.849152 
	C735.674561,274.437500 739.156006,281.080292 742.023743,287.959045 
	C750.138794,307.424744 764.163025,319.882660 785.042786,325.110474 
z"/>
<path fill="#030404" opacity="1.000000" stroke="none" 
	d="
M483.869690,295.365540 
	C483.199463,293.424469 482.529236,291.483429 481.739746,289.196899 
	C480.877686,289.196899 479.653992,289.196899 478.153137,289.196899 
	C478.026276,290.753540 477.908875,292.193604 477.755035,294.080963 
	C472.438385,294.080963 467.159332,294.287994 461.906067,294.009216 
	C458.317383,293.818787 456.800690,291.272949 456.788940,287.818268 
	C456.772644,283.018585 456.784851,278.218811 456.784851,273.140320 
	C458.881348,272.920746 460.283936,272.773834 462.153320,272.578033 
	C462.153320,276.311279 462.153320,279.721252 462.153320,283.489746 
	C496.124695,283.489746 529.664185,283.489746 563.651794,283.489746 
	C563.651794,280.218384 563.651794,276.809326 563.651794,273.023682 
	C565.592773,273.023682 567.094055,273.023682 568.899902,273.023682 
	C569.164246,277.724060 569.567139,282.337189 569.643738,286.955719 
	C569.723511,291.767090 567.542908,293.969330 562.710693,294.101257 
	C558.073059,294.227905 553.429321,294.128632 548.859131,294.128632 
	C547.636780,289.166138 547.636780,289.166138 543.870239,289.157471 
	C543.737366,290.887512 543.602051,292.649933 542.790955,294.743469 
	C522.700012,295.171539 503.284851,295.268555 483.869690,295.365540 
z"/>
<path fill="#0F0F0E" opacity="1.000000" stroke="none" 
	d="
M483.006714,269.052246 
	C505.794220,269.064270 528.082886,269.079742 550.371582,269.085846 
	C559.996704,269.088470 560.262573,269.401123 558.733093,279.507874 
	C528.401428,279.507874 498.028900,279.507874 467.727783,279.507874 
	C467.476105,279.144470 467.155060,278.895020 467.140259,278.628571 
	C466.607574,269.037689 466.611542,269.037628 476.020813,269.047394 
	C478.183167,269.049622 480.345520,269.050446 483.006714,269.052246 
z"/>
<path fill="#060606" opacity="1.000000" stroke="none" 
	d="
M836.466858,242.484726 
	C848.943481,249.747910 861.349670,257.136871 873.941711,264.194092 
	C877.506226,266.191772 878.592163,268.953888 878.840149,272.617249 
	C879.376160,280.535522 876.483704,288.395691 871.854614,289.432312 
	C864.730713,291.027557 859.873840,286.418152 856.718872,281.226532 
	C849.328186,269.064667 842.764771,256.400085 835.994995,243.400452 
	C836.237915,242.736176 836.352417,242.610443 836.466858,242.484726 
z"/>
<path fill="#060606" opacity="1.000000" stroke="none" 
	d="
M190.761139,243.472626 
	C184.849915,254.606888 179.309875,265.962982 172.851105,276.770020 
	C170.135284,281.314240 165.903625,285.277344 161.586884,288.451904 
	C156.945068,291.865540 152.196411,290.321045 150.430450,284.821655 
	C148.851624,279.905121 148.430313,274.470978 148.449478,269.268707 
	C148.455917,267.518463 151.085785,265.284607 153.025177,264.115356 
	C164.968903,256.914612 177.058167,249.955185 189.679245,243.033325 
	C190.426682,243.258286 190.593918,243.365463 190.761139,243.472626 
z"/>
<path fill="#030404" opacity="1.000000" stroke="none" 
	d="
M483.908752,531.968018 
	C483.516235,528.915527 483.179626,526.286133 482.792633,523.263245 
	C502.902985,523.263245 522.751282,523.263245 543.272217,523.263245 
	C542.796509,527.071228 542.645142,531.012329 541.663391,534.734375 
	C541.295410,536.129517 539.011169,537.965210 537.575195,537.987793 
	C521.458862,538.241760 505.337463,538.157288 489.217621,538.221313 
	C485.181030,538.237366 484.249908,535.653442 483.908752,531.968018 
z"/>
<path fill="#EBECE9" opacity="1.000000" stroke="none" 
	d="
M892.298279,751.857544 
	C883.526794,734.579224 874.957031,717.203247 866.589172,699.730591 
	C854.189148,673.838684 843.466553,647.268066 834.793762,619.487244 
	C835.914124,619.062561 837.046326,619.033081 838.603210,618.998291 
	C843.486938,631.121460 847.287354,643.543152 852.532593,655.321472 
	C866.367371,686.388000 880.829163,717.175232 895.059937,748.435181 
	C894.249207,749.770081 893.419739,750.743347 892.298279,751.857544 
z"/>
<path fill="#161716" opacity="1.000000" stroke="none" 
	d="
M477.616455,523.135498 
	C478.703979,526.217041 479.581543,529.194458 479.980591,532.234741 
	C480.958496,539.685364 483.524261,542.193420 490.885284,542.204773 
	C505.697449,542.227661 520.509949,542.226318 535.321838,542.149658 
	C542.668579,542.111633 545.135681,539.843018 546.083618,532.639160 
	C546.365845,530.494690 546.353394,528.256042 547.014282,526.236694 
	C547.442871,524.927307 548.847168,523.937256 549.814270,522.804077 
	C550.190125,523.089417 550.565979,523.374756 550.941833,523.660095 
	C550.941833,528.438232 551.364807,533.263855 550.834412,537.982361 
	C550.176270,543.837463 545.428772,548.269409 539.152100,548.359070 
	C521.854431,548.606262 504.543274,548.600708 487.250488,548.171021 
	C480.102814,547.993469 475.754852,542.947693 475.260193,535.866821 
	C475.016998,532.385010 474.933990,528.876038 475.094086,525.393921 
	C475.131256,524.585571 476.456299,523.836365 477.616455,523.135498 
z"/>
<path fill="#060606" opacity="1.000000" stroke="none" 
	d="
M542.963562,297.057434 
	C543.122437,298.855530 543.292297,300.652740 543.437866,302.451874 
	C543.789124,306.793793 541.733459,308.204895 537.481567,308.153961 
	C522.371399,307.972839 507.257690,308.089020 492.145325,308.081421 
	C482.350861,308.076508 481.847778,307.464050 484.080627,297.296173 
	C504.267853,297.148163 523.615723,297.102814 542.963562,297.057434 
z"/>
<path fill="#ECEDEB" opacity="1.000000" stroke="none" 
	d="
M230.017426,208.001282 
	C231.977646,204.964218 233.488312,200.821381 236.249207,199.665939 
	C244.907196,196.042526 253.845474,192.408447 263.025818,190.867783 
	C278.050232,188.346359 293.337097,187.317581 308.539886,185.956268 
	C318.093994,185.100769 326.391907,188.532516 334.024323,194.205673 
	C343.895142,201.542526 354.043335,208.505463 363.970215,215.768677 
	C364.946198,216.482803 365.211243,218.168625 365.806274,219.403442 
	C365.283173,219.775513 364.760101,220.147598 364.237000,220.519669 
	C357.400177,215.912170 350.562042,211.306564 343.729675,206.692459 
	C343.317719,206.414230 342.931732,206.089539 342.566956,205.750610 
	C327.617706,191.859879 310.096191,186.986572 290.101440,190.772324 
	C275.757904,193.488098 261.298401,195.725586 247.129654,199.162003 
	C241.727432,200.472214 236.991882,204.531250 231.968323,207.692383 
	C231.369431,208.118973 230.754684,208.190704 230.017426,208.001282 
z"/>
<path fill="#ECEDEB" opacity="1.000000" stroke="none" 
	d="
M795.167664,208.265945 
	C789.349854,204.827972 784.042297,200.367126 777.958862,198.640930 
	C758.225525,193.041489 738.061584,189.598297 717.390503,189.989746 
	C710.175903,190.126358 703.586243,191.787384 697.709473,196.052383 
	C691.110352,200.841568 684.551758,205.690521 677.856506,210.342056 
	C672.954102,213.748016 667.859497,216.877228 662.850525,220.129791 
	C662.318542,219.859619 661.786621,219.589447 661.254639,219.319275 
	C661.658997,218.162857 661.707275,216.521103 662.521667,215.923630 
	C672.850403,208.346024 683.355042,201.007950 693.677246,193.421707 
	C700.653381,188.294632 708.345703,185.984283 716.967896,185.842636 
	C739.664856,185.469833 761.762939,188.910217 783.257568,196.051544 
	C789.043335,197.973770 794.931946,200.341736 797.000244,207.522064 
	C796.470947,208.082703 795.896851,208.288940 795.167664,208.265945 
z"/>
<path fill="#0A0A0A" opacity="1.000000" stroke="none" 
	d="
M809.567139,231.065918 
	C804.035400,230.451141 798.918152,229.896118 793.805054,229.305466 
	C786.364258,228.445923 779.335449,229.465424 772.594727,233.020920 
	C764.003723,237.552353 757.744019,236.204025 749.313477,227.575256 
	C765.997620,225.567963 781.618469,223.229797 797.326111,222.002396 
	C804.613098,221.432968 809.806458,227.188095 815.135620,231.812408 
	C813.418274,231.578186 811.700928,231.343964 809.567139,231.065918 
z"/>
<path fill="#0A0A0A" opacity="1.000000" stroke="none" 
	d="
M225.032013,222.604034 
	C233.170319,222.783539 240.974258,222.710495 248.666382,223.602036 
	C257.725037,224.651993 266.686859,226.537766 275.785278,228.077133 
	C272.145416,233.977005 263.697906,238.085663 258.280762,234.850647 
	C243.037994,225.748001 227.295670,230.380692 210.978287,230.599945 
	C215.534912,227.992722 220.091522,225.385513 225.032013,222.604034 
z"/>
<path fill="#B4B5B4" opacity="1.000000" stroke="none" 
	d="
M542.982666,296.734558 
	C523.615723,297.102814 504.267853,297.148163 484.459961,297.096680 
	C483.949524,296.640015 483.899078,296.280182 483.859161,295.642944 
	C503.284851,295.268555 522.700012,295.171539 542.586914,295.102051 
	C543.039734,295.556915 543.020752,295.984283 542.982666,296.734558 
z"/>
<path fill="#ECEDEB" opacity="1.000000" stroke="none" 
	d="
M191.811035,618.088257 
	C192.072937,618.604675 192.004715,619.150635 191.768188,619.918762 
	C191.560211,619.466492 191.520569,618.792175 191.811035,618.088257 
z"/>
<path fill="#060606" opacity="1.000000" stroke="none" 
	d="
M835.946533,243.045471 
	C835.526367,242.932236 835.283264,242.635437 835.040100,242.338623 
	C835.367126,242.238632 835.694214,242.138641 836.244019,242.261688 
	C836.352417,242.610443 836.237915,242.736176 835.946533,243.045471 
z"/>
<path fill="#060606" opacity="1.000000" stroke="none" 
	d="
M190.023895,242.968704 
	C190.251526,242.852020 190.714691,242.917755 190.969513,243.228058 
	C190.593918,243.365463 190.426682,243.258286 190.023895,242.968704 
z"/>
<path fill="#0F0F0E" opacity="1.000000" stroke="none" 
	d="
M458.555969,674.544922 
	C461.125305,673.562073 463.441223,672.303040 465.762329,672.293335 
	C497.871155,672.159424 529.980774,672.232666 562.089966,672.152954 
	C566.738708,672.141418 569.227478,674.128906 569.845886,679.112305 
	C532.289612,679.112305 494.854767,679.112305 456.877197,679.112305 
	C457.410675,677.519531 457.857819,676.184570 458.555969,674.544922 
z"/>
<path fill="#EBECE9" opacity="1.000000" stroke="none" 
	d="
M902.111572,765.019531 
	C902.669067,765.367493 902.940186,765.854126 903.202271,766.629150 
	C902.737183,766.331116 902.281128,765.744751 902.111572,765.019531 
z"/>
<path fill="#F8F8F8" opacity="1.000000" stroke="none" 
	d="
M138.675751,432.139832 
	C145.840698,431.027130 151.373444,433.120728 154.965805,438.987030 
	C158.040726,444.008362 158.217072,449.386658 155.199951,454.606750 
	C151.901428,460.313721 145.904892,463.042908 139.529465,461.880493 
	C133.502350,460.781586 129.088577,456.213165 127.818130,449.758820 
	C126.580162,443.469452 129.001343,437.518921 134.247986,434.197540 
	C135.503601,433.402710 136.920944,432.863342 138.675751,432.139832 
z"/>
<path fill="#F8F8F8" opacity="1.000000" stroke="none" 
	d="
M871.079041,439.314270 
	C876.270874,432.444885 882.530518,430.208435 889.000549,432.644348 
	C895.613403,435.134064 899.398987,441.076843 898.929810,448.232025 
	C898.518066,454.511169 893.766846,460.241516 887.447815,461.635559 
	C881.893616,462.860779 876.866089,461.657928 872.999084,457.225830 
	C868.334106,451.879181 867.967957,445.941193 871.079041,439.314270 
z"/>
<path fill="#E7E7E7" opacity="1.000000" stroke="none" 
	d="
M554.095520,588.758789 
	C552.638916,592.600037 551.460632,596.136902 549.636780,599.301758 
	C548.430908,601.394287 546.529297,603.290527 544.521484,604.664185 
	C542.063660,606.345764 539.194397,608.466675 536.459656,608.530151 
	C521.160034,608.885437 505.847229,608.644836 490.539124,608.683167 
	C486.585632,608.693054 483.406433,607.390686 481.113312,604.100403 
	C480.639069,603.419983 480.186707,602.631287 479.526001,602.187866 
	C470.384216,596.051697 471.674286,586.749329 472.366882,577.834351 
	C472.813721,572.082520 476.578705,568.951172 482.451538,568.929932 
	C503.084320,568.855225 523.717834,568.869568 544.350525,568.973450 
	C549.976501,569.001770 553.587585,572.594971 553.992615,578.317200 
	C554.227112,581.629456 554.076782,584.969055 554.095520,588.758789 
M503.500092,572.753418 
	C496.667053,572.751221 489.833496,572.801575 483.001190,572.728394 
	C478.388245,572.679016 476.282776,575.073792 476.166016,579.449951 
	C476.072693,582.947388 475.991699,586.456421 476.167206,589.947205 
	C476.469788,595.966187 485.537201,604.770752 491.381805,604.777405 
	C506.381042,604.794373 521.381165,604.817505 536.378418,604.631592 
	C538.143066,604.609680 540.185181,603.661133 541.598083,602.521545 
	C548.586731,596.884705 551.341980,589.659241 550.221130,580.569946 
	C549.447144,574.292908 548.442871,572.713989 541.998413,572.710083 
	C529.498962,572.702576 516.999573,572.736633 503.500092,572.753418 
z"/>
<path fill="#EBECE9" opacity="1.000000" stroke="none" 
	d="
M656.596130,586.496948 
	C657.060730,597.069336 652.245422,605.177063 643.560303,608.995911 
	C635.651733,612.473267 626.142944,610.560608 619.584595,604.173340 
	C613.403564,598.153564 611.555115,588.363708 615.047180,580.142029 
	C618.545654,571.905212 627.899292,566.395386 636.824158,567.314026 
	C647.331116,568.395447 654.189026,574.933289 656.596130,586.496948 
M628.773987,605.191406 
	C631.549377,605.533875 634.354004,606.316406 637.094543,606.134399 
	C644.617920,605.634766 649.170044,600.960999 651.657532,594.273865 
	C654.110352,587.680115 651.803772,580.139404 646.053467,575.366699 
	C640.581665,570.825073 634.391663,569.755798 627.892578,572.885437 
	C621.554932,575.937317 617.901550,581.020813 617.677795,588.221375 
	C617.434692,596.044983 621.026245,601.557007 628.773987,605.191406 
z"/>
<path fill="#E7E7E7" opacity="1.000000" stroke="none" 
	d="
M640.152527,557.254944 
	C640.138123,555.014526 640.159912,553.182373 640.181274,551.350220 
	C640.227234,547.398193 641.894531,546.143250 645.511047,548.262268 
	C645.899353,541.456360 641.994446,536.328979 636.180969,535.881714 
	C629.606934,535.376038 625.338440,539.544189 624.670471,546.767517 
	C626.406311,547.535156 629.235168,548.041199 629.393921,548.992615 
	C629.922974,552.164612 629.494629,555.496399 629.433167,558.766907 
	C628.009094,558.732544 626.077576,559.285889 625.244812,558.566772 
	C620.483948,554.455566 619.507080,546.743469 622.658936,540.798340 
	C625.748840,534.970276 631.502197,531.997925 637.537964,533.111389 
	C643.769165,534.260742 648.192932,539.266418 648.796204,546.009705 
	C649.200928,550.532959 649.868713,554.883850 645.079407,558.229126 
	C642.587402,559.969788 641.581726,560.170105 640.152527,557.254944 
z"/>
<path fill="#F1F2F1" opacity="1.000000" stroke="none" 
	d="
M403.000000,319.943451 
	C491.659760,319.940704 579.819519,319.930634 667.979309,319.976013 
	C670.187195,319.977142 673.888977,318.697693 672.612183,323.777039 
	C566.272949,323.777039 460.007507,323.777039 353.758575,323.777039 
	C353.412567,320.044983 353.412354,319.946686 357.003632,319.938843 
	C372.169006,319.905640 387.334534,319.936096 403.000000,319.943451 
z"/>
<path fill="#E7E7E7" opacity="1.000000" stroke="none" 
	d="
M537.500916,219.816315 
	C522.431885,219.814819 507.809723,219.810364 493.187531,219.802399 
	C491.692200,219.801590 490.192719,219.847031 488.702240,219.755676 
	C483.545532,219.439621 479.983521,216.467316 480.072296,212.616608 
	C480.163879,208.645111 483.649353,205.767929 488.873932,205.745682 
	C504.991241,205.677048 521.109253,205.695877 537.226685,205.753296 
	C542.759766,205.773010 545.935486,208.236313 546.116760,212.356079 
	C546.302063,216.567108 543.884827,218.773453 537.500916,219.816315 
M542.095825,212.477203 
	C540.376343,211.597153 538.666077,209.974472 536.935852,209.952866 
	C521.107910,209.755295 505.275391,209.752258 489.447571,209.954025 
	C487.704987,209.976242 485.983246,211.636902 484.251862,212.537643 
	C485.958862,213.723190 487.649933,215.910797 489.375305,215.938171 
	C505.368195,216.192047 521.367920,216.149353 537.362488,215.944855 
	C538.943420,215.924637 540.503113,214.253357 542.095825,212.477203 
z"/>
<path fill="#F8F8F8" opacity="1.000000" stroke="none" 
	d="
M580.759583,206.503937 
	C579.187134,204.895523 576.885437,203.377853 577.020996,202.123627 
	C577.179626,200.655792 579.232239,198.779678 580.863403,198.192688 
	C587.110046,195.944763 593.564209,195.385941 599.654053,198.665237 
	C604.027283,201.020172 603.892761,203.979111 599.493835,206.212936 
	C593.480286,209.266678 587.293701,208.602020 580.759583,206.503937 
z"/>
<path fill="#ECEDEB" opacity="1.000000" stroke="none" 
	d="
M561.759644,199.761932 
	C563.521851,200.559830 564.870361,201.317886 566.294861,202.118607 
	C562.893188,206.338623 559.753296,206.415298 555.047791,201.955368 
	C557.491333,201.088898 559.418579,200.405487 561.759644,199.761932 
z"/>
<path fill="#131313" opacity="1.000000" stroke="none" 
	d="
M504.000122,572.753418 
	C516.999573,572.736633 529.498962,572.702576 541.998413,572.710083 
	C548.442871,572.713989 549.447144,574.292908 550.221130,580.569946 
	C551.341980,589.659241 548.586731,596.884705 541.598083,602.521545 
	C540.185181,603.661133 538.143066,604.609680 536.378418,604.631592 
	C521.381165,604.817505 506.381042,604.794373 491.381805,604.777405 
	C485.537201,604.770752 476.469788,595.966187 476.167206,589.947205 
	C475.991699,586.456421 476.072693,582.947388 476.166016,579.449951 
	C476.282776,575.073792 478.388245,572.679016 483.001190,572.728394 
	C489.833496,572.801575 496.667053,572.751221 504.000122,572.753418 
M481.146667,590.572937 
	C483.124268,592.764099 484.926178,595.157776 487.138794,597.078186 
	C488.721405,598.451782 490.836853,600.037354 492.745056,600.077332 
	C506.395233,600.364380 520.053223,600.291748 533.708740,600.288635 
	C534.842773,600.288391 536.665039,600.336609 537.002991,599.721924 
	C540.019287,594.235962 547.141846,591.155579 545.881531,583.035645 
	C545.215149,578.742310 544.219604,576.887024 539.595703,576.949463 
	C524.111145,577.158508 508.620239,576.867920 493.134949,577.046326 
	C480.406952,577.192993 480.600647,574.112488 481.146667,590.572937 
z"/>
<path fill="#0A0A0A" opacity="1.000000" stroke="none" 
	d="
M628.390625,605.069580 
	C621.026245,601.557007 617.434692,596.044983 617.677795,588.221375 
	C617.901550,581.020813 621.554932,575.937317 627.892578,572.885437 
	C634.391663,569.755798 640.581665,570.825073 646.053467,575.366699 
	C651.803772,580.139404 654.110352,587.680115 651.657532,594.273865 
	C649.170044,600.960999 644.617920,605.634766 637.094543,606.134399 
	C634.354004,606.316406 631.549377,605.533875 628.390625,605.069580 
M632.126404,579.969116 
	C627.755249,581.581909 625.365417,584.718689 625.484985,589.374573 
	C625.586792,593.338074 627.572998,596.346130 631.338257,597.820007 
	C635.475525,599.439453 639.904663,598.766052 641.987183,595.151306 
	C643.637207,592.287109 644.088379,587.806702 643.154297,584.602966 
	C641.855286,580.147156 637.427979,579.166687 632.126404,579.969116 
z"/>
<path fill="#030404" opacity="1.000000" stroke="none" 
	d="
M542.084229,212.912796 
	C540.503113,214.253357 538.943420,215.924637 537.362488,215.944855 
	C521.367920,216.149353 505.368195,216.192047 489.375305,215.938171 
	C487.649933,215.910797 485.958862,213.723190 484.251862,212.537643 
	C485.983246,211.636902 487.704987,209.976242 489.447571,209.954025 
	C505.275391,209.752258 521.107910,209.755295 536.935852,209.952866 
	C538.666077,209.974472 540.376343,211.597153 542.084229,212.912796 
z"/>
<path fill="#F1F2F1" opacity="1.000000" stroke="none" 
	d="
M481.054932,590.162964 
	C480.600647,574.112488 480.406952,577.192993 493.134949,577.046326 
	C508.620239,576.867920 524.111145,577.158508 539.595703,576.949463 
	C544.219604,576.887024 545.215149,578.742310 545.881531,583.035645 
	C547.141846,591.155579 540.019287,594.235962 537.002991,599.721924 
	C536.665039,600.336609 534.842773,600.288391 533.708740,600.288635 
	C520.053223,600.291748 506.395233,600.364380 492.745056,600.077332 
	C490.836853,600.037354 488.721405,598.451782 487.138794,597.078186 
	C484.926178,595.157776 483.124268,592.764099 481.054932,590.162964 
M505.360535,585.637939 
	C502.574036,585.907532 499.790283,586.258118 496.997864,586.353088 
	C496.610016,586.366211 496.045166,585.163574 495.800018,584.442810 
	C495.434204,583.367371 495.279785,582.220093 495.073395,581.276855 
	C491.464386,581.276855 488.087158,581.276855 485.213989,581.276855 
	C482.851440,586.452820 486.454193,589.047485 488.485107,592.582336 
	C490.495941,596.082336 492.581543,596.984558 496.283295,596.912781 
	C507.259033,596.699524 518.241638,596.846191 529.221558,596.839905 
	C537.206543,596.835388 543.021729,589.307129 541.238586,581.205811 
	C537.859558,581.205811 534.469055,581.205811 531.078552,581.205811 
	C531.382629,581.619385 531.686707,582.032959 531.990784,582.446472 
	C530.551697,583.842773 529.190186,586.294678 527.656860,586.407288 
	C524.794434,586.617432 521.589722,584.470337 518.965698,585.107849 
	C514.476624,586.198425 510.265198,585.742310 505.360535,585.637939 
z"/>
<path fill="#F8F8F8" opacity="1.000000" stroke="none" 
	d="
M632.533813,579.878784 
	C637.427979,579.166687 641.855286,580.147156 643.154297,584.602966 
	C644.088379,587.806702 643.637207,592.287109 641.987183,595.151306 
	C639.904663,598.766052 635.475525,599.439453 631.338257,597.820007 
	C627.572998,596.346130 625.586792,593.338074 625.484985,589.374573 
	C625.365417,584.718689 627.755249,581.581909 632.533813,579.878784 
z"/>
<path fill="#0A0A0A" opacity="1.000000" stroke="none" 
	d="
M505.640808,585.394531 
	C510.265198,585.742310 514.476624,586.198425 518.965698,585.107849 
	C521.589722,584.470337 524.794434,586.617432 527.656860,586.407288 
	C529.190186,586.294678 530.551697,583.842773 531.990784,582.446472 
	C531.686707,582.032959 531.382629,581.619385 531.078552,581.205811 
	C534.469055,581.205811 537.859558,581.205811 541.238586,581.205811 
	C543.021729,589.307129 537.206543,596.835388 529.221558,596.839905 
	C518.241638,596.846191 507.259033,596.699524 496.283295,596.912781 
	C492.581543,596.984558 490.495941,596.082336 488.485107,592.582336 
	C486.454193,589.047485 482.851440,586.452820 485.213989,581.276855 
	C488.087158,581.276855 491.464386,581.276855 495.073395,581.276855 
	C495.279785,582.220093 495.434204,583.367371 495.800018,584.442810 
	C496.045166,585.163574 496.610016,586.366211 496.997864,586.353088 
	C499.790283,586.258118 502.574036,585.907532 505.640808,585.394531 
z"/>
</svg>